<?xml version="1.0" encoding="utf-8"?>
<!-- Generator: Adobe Illustrator 19.0.0, SVG Export Plug-In . SVG Version: 6.00 Build 0)  -->
<svg version="1.1" id="Capa_1" xmlns="http://www.w3.org/2000/svg" xmlns:xlink="http://www.w3.org/1999/xlink" x="0px" y="0px"
	 viewBox="0 0 20 20" style="enable-background:new 0 0 20 20;" xml:space="preserve">
<style type="text/css">
	.st0{fill:#BE0411;}
</style>
<g id="XMLID_197_">
	<path id="XMLID_199_" class="st0" d="M16.6,2.5c-2.2-1.9-5.1-2.8-8-2.4c-2.8,0.4-5.3,2-6.9,4.4C0,6.9-0.4,10,0.4,12.8
		c0.8,2.7,2.7,5,5.3,6.2c2.6,1.3,5.7,1.3,8.4,0.1c3.6-1.6,5.9-5.3,5.9-9.1C20,7.1,18.7,4.4,16.6,2.5z M13.2,18.5c-0.1,0-0.3,0-0.4,0
		c-0.2,0-0.4,0-0.5,0c-0.4-0.1-0.7-0.3-0.9-0.5c-0.3-0.3-0.4-0.6-0.5-1c-0.1-0.4,0-0.7,0.1-1.1c0.9-0.2,1.7-0.5,2.4-1
		c0.1,0.8,0.6,1.6,1.4,1.9c0.4,0.2,0.7,0.2,1.1,0.2c-0.1,0.1-0.2,0.2-0.3,0.3C14.8,17.7,14,18.2,13.2,18.5z M6.6,17.6
		c0.1,0.4,0.2,0.7,0.4,1c-1-0.4-1.9-0.9-2.7-1.6c-0.1-0.1-0.1-0.2-0.2-0.3c-0.1-0.2-0.2-0.3-0.2-0.5c-0.1-0.4-0.1-0.7,0-1.1
		c0.1-0.4,0.4-0.6,0.6-0.9c0.3-0.3,0.6-0.4,1-0.4c0.5,0.5,1,1,1.6,1.4c0.1,0.1,0.3,0.2,0.4,0.2c-0.3,0.2-0.6,0.5-0.7,0.8
		C6.6,16.6,6.5,17.1,6.6,17.6z M1.1,8.5c0.1-0.1,0.1-0.2,0.2-0.3C1.3,8,1.4,7.9,1.5,7.8c0.2-0.3,0.6-0.4,0.9-0.5
		c0.4-0.1,0.7,0,1.1,0.1C3.9,7.4,4.2,7.6,4.5,8c0,0,0,0,0,0.1C4.1,8.8,4,9.7,4.1,10.6c-0.8-0.4-1.8-0.3-2.4,0.3
		c-0.3,0.2-0.5,0.5-0.6,0.8C0.9,10.7,0.9,9.6,1.1,8.5z M6.8,1.5c0.1,0,0.2,0,0.4,0c0.2,0,0.4,0,0.5,0c0.4,0.1,0.7,0.3,0.9,0.5
		c0.3,0.3,0.4,0.6,0.5,1c0.1,0.4,0,0.7-0.1,1.1c-0.9,0.2-1.7,0.5-2.4,1C6.5,4.4,6,3.6,5.2,3.3C4.8,3.1,4.5,3.1,4.1,3.1
		C4.9,2.4,5.8,1.9,6.8,1.5z M13.4,2.4C13.3,2,13.2,1.7,13,1.4c1,0.4,1.9,0.9,2.7,1.5c0.1,0.1,0.1,0.2,0.2,0.3
		c0.1,0.2,0.2,0.3,0.2,0.5c0.1,0.4,0.1,0.7,0,1.1c-0.1,0.4-0.4,0.6-0.6,0.9c-0.3,0.3-0.6,0.4-1,0.4c-0.6-0.7-1.3-1.2-2.1-1.6
		c0.3-0.2,0.6-0.5,0.7-0.8C13.4,3.4,13.5,2.9,13.4,2.4z M19.1,10c0,0.5,0,1-0.1,1.5c-0.1,0.1-0.1,0.2-0.2,0.3
		c-0.1,0.2-0.2,0.3-0.3,0.4c-0.2,0.3-0.6,0.4-0.9,0.5c-0.4,0.1-0.7,0-1.1-0.1c-0.4-0.1-0.7-0.3-0.9-0.7c0.2-0.7,0.4-1.3,0.4-2
		c0-0.2,0-0.4,0-0.6c0.8,0.4,1.8,0.3,2.4-0.3c0.3-0.2,0.5-0.5,0.6-0.8C19,8.9,19.1,9.4,19.1,10z M11.1,13c-0.6-0.6-1.6-0.6-2.2,0
		c-0.6,0.6-0.6,1.6,0,2.2C9,15.3,9,15.3,9.1,15.4c-0.8-0.1-1.6-0.5-2.2-0.9c0.1,0,0.1,0,0.2,0c0.8,0,1.5-0.7,1.5-1.5
		c0-0.8-0.7-1.5-1.5-1.5s-1.5,0.7-1.5,1.5c0,0.1,0,0.1,0,0.2c-0.4-0.6-0.8-1.4-0.9-2.2c0,0.1,0.1,0.1,0.1,0.2c0.6,0.6,1.6,0.6,2.2,0
		c0.6-0.6,0.6-1.6,0-2.2c-0.6-0.6-1.6-0.6-2.2,0C4.7,9,4.7,9,4.6,9.1c0.1-0.8,0.5-1.5,0.9-2.2c0,0.1,0,0.1,0,0.2
		c0,0.8,0.7,1.5,1.5,1.5c0.8,0,1.5-0.7,1.5-1.5c0-0.8-0.7-1.5-1.5-1.5c-0.1,0-0.1,0-0.2,0c0.6-0.4,1.4-0.8,2.1-0.9
		C9,4.7,9,4.7,8.9,4.8C8.3,5.4,8.3,6.4,8.9,7c0.6,0.6,1.6,0.6,2.2,0c0.6-0.6,0.6-1.6,0-2.2C11,4.7,11,4.7,10.9,4.6
		c0.8,0.1,1.5,0.5,2.2,0.9c-0.1,0-0.1,0-0.2,0c-0.8,0-1.5,0.7-1.5,1.5c0,0.8,0.7,1.5,1.5,1.5s1.5-0.7,1.5-1.5c0-0.1,0-0.1,0-0.2
		c0.4,0.6,0.8,1.4,0.9,2.2c0-0.1-0.1-0.1-0.1-0.2c-0.6-0.6-1.6-0.6-2.2,0c-0.6,0.6-0.6,1.6,0,2.2c0.6,0.6,1.6,0.6,2.2,0
		c0.1-0.1,0.1-0.1,0.1-0.2c-0.1,0.8-0.5,1.5-0.9,2.2c0-0.1,0-0.1,0-0.2c0-0.8-0.7-1.5-1.5-1.5s-1.5,0.7-1.5,1.5
		c0,0.8,0.7,1.5,1.5,1.5c0.1,0,0.1,0,0.2,0c-0.6,0.5-1.4,0.8-2.2,0.9c0.1,0,0.1-0.1,0.2-0.1C11.7,14.6,11.7,13.6,11.1,13z M18.5,7.2
		c0,0.2,0,0.4,0,0.5c-0.1,0.4-0.3,0.7-0.5,0.9c-0.3,0.3-0.6,0.4-1,0.5c-0.4,0.1-0.7,0-1.1-0.1c-0.2-0.9-0.5-1.7-1-2.4
		c0.8-0.1,1.6-0.6,1.9-1.4c0.2-0.4,0.2-0.7,0.2-1.1c0.7,0.8,1.2,1.7,1.6,2.7C18.5,6.9,18.5,7,18.5,7.2z M3,4.3
		C3.1,4.2,3.2,4.1,3.3,4c0.2-0.1,0.3-0.2,0.5-0.2c0.4-0.1,0.7-0.1,1.1,0C5.3,4,5.6,4.2,5.8,4.5c0.3,0.3,0.4,0.6,0.4,1
		C5.6,6,5,6.7,4.6,7.6C4.4,7.3,4.1,7,3.8,6.8c-0.4-0.2-1-0.3-1.4-0.2C2,6.7,1.7,6.8,1.5,7c0.2-0.5,0.4-1,0.7-1.5
		C2.4,5.1,2.7,4.7,3,4.3z M1.5,12.8c0-0.2,0-0.4,0-0.5c0.1-0.4,0.3-0.7,0.5-0.9c0.3-0.3,0.6-0.4,1-0.5c0.4-0.1,0.7,0,1.1,0.1
		c0.2,0.9,0.5,1.7,1,2.4c-0.8,0.1-1.6,0.6-1.9,1.4c-0.1,0.4-0.2,0.7-0.2,1.1c-0.6-0.7-1.1-1.5-1.5-2.3c-0.1-0.1-0.1-0.2-0.1-0.4
		C1.5,13.1,1.5,13,1.5,12.8z M17,15.7c-0.1,0.1-0.2,0.1-0.3,0.2c-0.2,0.1-0.3,0.2-0.5,0.2c-0.4,0.1-0.7,0.1-1.1,0
		c-0.4-0.1-0.6-0.4-0.9-0.6c-0.3-0.3-0.4-0.6-0.4-1c0.3-0.3,0.6-0.5,0.8-0.8c0.3-0.4,0.6-0.8,0.8-1.2c0.2,0.3,0.5,0.6,0.8,0.7
		c0.4,0.2,1,0.3,1.4,0.2c0.3-0.1,0.7-0.2,0.9-0.4C18.2,14,17.7,14.9,17,15.7z M11.4,1c0.1,0.1,0.2,0.1,0.4,0.2
		c0.2,0.1,0.3,0.2,0.4,0.3c0.3,0.2,0.4,0.6,0.5,0.9c0.1,0.4,0,0.7-0.1,1.1c-0.1,0.4-0.3,0.7-0.7,0.9c-0.3-0.1-0.7-0.2-1-0.3
		c-0.5-0.1-1.1-0.1-1.6-0.1c0.4-0.8,0.3-1.8-0.3-2.4C8.9,1.4,8.6,1.2,8.3,1.1c0.1,0,0.2,0,0.3-0.1C9.6,0.9,10.5,0.9,11.4,1z
		 M8.5,18.9c-0.1-0.1-0.2-0.1-0.3-0.2c-0.2-0.1-0.3-0.2-0.4-0.3c-0.3-0.2-0.4-0.6-0.5-0.9c-0.1-0.4,0-0.7,0.1-1.1
		c0.1-0.4,0.3-0.7,0.7-0.9c0.8,0.3,1.7,0.4,2.6,0.3c-0.4,0.8-0.3,1.8,0.3,2.4c0.2,0.3,0.5,0.5,0.8,0.6C10.6,19.1,9.6,19.1,8.5,18.9z
		"/>
	<circle id="XMLID_198_" class="st0" cx="10" cy="10" r="1.5"/>
</g>
</svg>
