<?xml version="1.0" encoding="utf-8"?>
<!-- Generator: Adobe Illustrator 19.0.0, SVG Export Plug-In . SVG Version: 6.00 Build 0)  -->
<svg version="1.1" id="Capa_1" xmlns="http://www.w3.org/2000/svg" xmlns:xlink="http://www.w3.org/1999/xlink" x="0px" y="0px"
	 viewBox="0 0 20 20" style="enable-background:new 0 0 20 20;" xml:space="preserve">
<style type="text/css">
	.st0{fill:#FDED00;}
</style>
<g id="XMLID_235_">
	<path id="XMLID_261_" class="st0" d="M8.1,10c-0.3,0.1-0.5,0.2-0.7,0.3c0.1,0,0.3,0.1,0.4,0.2c0.1,0.1-0.1,0.4-0.3,0.2
		c-0.2-0.1-0.1,0.1,0,0.2c0,0,0.1,0,0.1,0.1c0.1-0.2,0.3-0.5,0.4-0.7C8.1,10.3,8.1,10.1,8.1,10z"/>
	<polygon id="XMLID_260_" class="st0" points="8.1,18.2 8.1,18.2 8.1,18.2 	"/>
	<path id="XMLID_259_" class="st0" d="M12.9,11.2c0.3,0.1,0.5,0.2,0.8,0.2c-0.1-0.1-0.2-0.2-0.2-0.4c0-0.2,0.3-0.2,0.4,0
		c0.1,0,0.1,0,0.1-0.1c0-0.1,0-0.2-0.1-0.2c-0.2,0.1-0.5,0.2-0.7,0.3C13.1,11,13,11.1,12.9,11.2z"/>
	<path id="XMLID_246_" class="st0" d="M10.4,12.5c-0.1,0-0.3-0.1-0.4-0.2c0,0.3,0,0.5,0.1,0.8c0.1-0.1,0.2-0.2,0.3-0.3
		c0.2-0.1,0.3,0.2,0.1,0.3c-0.1,0-0.1,0,0,0.1c0.1,0,0.1,0,0.2,0c0,0,0.1-0.1,0.1-0.1C10.7,12.9,10.5,12.7,10.4,12.5z"/>
	<path id="XMLID_245_" class="st0" d="M9.1,7.3C9,7.5,8.7,7.4,8.8,7.2c0.1-0.2-0.2,0-0.2,0c0,0,0,0.1,0,0.2c0.3,0,0.5,0.1,0.8,0.2
		c0.1,0,0.3-0.1,0.4-0.1C9.6,7.3,9.4,7.1,9.2,6.9C9.2,7.1,9.2,7.2,9.1,7.3z"/>
	<path id="XMLID_244_" class="st0" d="M12.5,7.9c0.1,0.1,0.2,0.2,0.2,0.3C12.9,8,13,7.8,13.1,7.6c-0.1,0.1-0.3,0.1-0.4,0.1
		c-0.2-0.1-0.2-0.4,0-0.4c0.2,0,0-0.2-0.1-0.2c0,0-0.1,0-0.1,0C12.5,7.4,12.5,7.7,12.5,7.9z"/>
	<path id="XMLID_236_" class="st0" d="M19.6,13.1c-0.4-0.7-1.1-1.1-1.9-1.4c-0.8-0.3-1.6-0.2-2.3,0c-0.7,0.2-1.4,0.6-2.1,0.8
		c-1.1,0.3-2.1-0.8-2.2-1.8c0.2,0.3,0.6,0.6,0.9,0.7c0.9,0.5,2.1,0.6,3.1,0.3c0.8-0.3,1.4-0.8,1.7-1.6c0.2-0.4,0.3-0.8,0.5-1.2
		c0.1,0.5,0.5,0.9,1.1,0.9c0.7,0.1,1.3-0.4,1.3-1.1c0.1-0.7-0.4-1.2-1.1-1.3c-0.4,0-0.8,0.1-1.1,0.4c-0.2,0.1-0.4,0.2-0.6,0.4
		c-0.4,0.5-0.4,1.1-0.6,1.6c-0.3,0.7-1.1,1.3-1.9,1.5c0,0,0,0,0,0c0.2-0.3,0.2-0.7,0-1c0.4-0.3,0.7-0.7,0.9-1.1
		c0.3-0.7,0.3-1.5,0.3-2.2c-0.1-0.6-0.1-1.3,0.1-1.9c0.2-0.5,0.6-0.9,1.1-1.1c0.4-0.2,1-0.1,1.2,0.3c0,0.1,0,0.1,0,0.2c0,0,0,0,0,0
		c0,0,0,0,0,0c0,0-0.1,0-0.1,0c0,0-0.1,0-0.1,0c-0.1,0-0.2-0.1-0.4-0.1c-0.3,0-0.6,0.2-0.7,0.5c-0.1,0.3,0.1,0.6,0.3,0.8
		c0.6,0.4,1.6,0.2,2-0.4c0.5-0.6,0.5-1.5,0-2.1c-1.2-1.5-3.4-0.8-4.4,0.5C14.2,4.5,14,5.3,14,6.1c0,0.8,0.2,1.5,0.1,2.3
		c-0.2,1.1-1.4,1.7-2.5,1.5c0.4-0.1,0.7-0.3,0.9-0.7c0.8-0.7,1.3-1.8,1.2-2.8c0-0.9-0.4-1.6-1.1-2.1c-0.4-0.3-0.9-0.6-1.2-1
		c0,0,0,0,0,0c0.2,0.1,0.4,0.2,0.6,0.3c0.7,0.1,1.3-0.4,1.3-1.1c0.1-0.7-0.4-1.2-1.1-1.3C11.7,1,11.1,1.5,11,2.1c0,0,0,0.1,0,0.1
		c-0.3,0.3-0.2,0.9,0,1.3c0.3,0.5,0.9,0.7,1.4,1.1C13,5.2,13.3,6,13.2,6.8c-0.2-0.3-0.6-0.4-1-0.3c-0.2-0.5-0.6-1-1-1.3
		c-0.6-0.4-1.3-0.6-2-0.8C8.7,4.3,8.1,4.1,7.6,3.8C7.2,3.5,6.9,2.9,6.9,2.5c0-0.4,0.1-1,0.6-1.1c0,0,0.2,0,0.2,0
		c0.1,0,0.1,0,0.1,0.1c0,0,0,0,0,0c0,0,0,0,0,0C7.6,1.7,7.6,1.9,7.5,2C7.3,2.6,8.1,3.2,8.6,2.9c0.7-0.5,0.8-1.3,0.4-2
		c-0.4-0.7-1.4-1-2.1-0.7C5.1,0.7,5.2,3,6.1,4.3c0.5,0.7,1.2,1.1,2,1.4c0.7,0.2,1.5,0.3,2.1,0.6c1.1,0.5,1.2,1.8,0.7,2.8
		c0-0.4-0.1-0.8-0.4-1.1c-0.5-1-1.4-1.8-2.5-2c-0.9-0.2-1.7,0-2.5,0.5C5.2,6.7,4.8,7.1,4.2,7C4.1,7,4,7,3.9,6.9
		c0.5-0.1,0.8-0.5,0.8-1c0.1-0.7-0.4-1.2-1.1-1.3C3,4.5,2.4,5,2.3,5.7c-0.1,0.6,0.4,1.1,1,1.3c0,0,0,0.1,0,0.1
		C3.5,7.5,4,7.7,4.5,7.6c0.6-0.1,1-0.5,1.5-0.9c0.4-0.3,1-0.4,1.6-0.4c0.4,0,0.7,0.1,1,0.2C8.2,6.7,8,7,7.9,7.3
		c-0.6,0-1.2,0.3-1.7,0.6c-0.6,0.4-1,1-1.4,1.6c-0.3,0.5-0.6,1-1.1,1.3c-0.5,0.3-1.2,0.4-1.7,0.2c-0.2-0.1-0.4-0.2-0.5-0.3
		c-0.1-0.2-0.2-0.4-0.1-0.6c0-0.1,0.1-0.1,0.1-0.2c-0.1,0.1,0,0,0.1,0c0,0,0.1,0,0.1,0c0,0,0,0,0,0.1c0.1,0.2,0.2,0.3,0.4,0.4
		c0.5,0.4,1.3-0.3,1.1-0.8c-0.3-0.8-1.1-1.1-1.9-1C0.5,8.7,0,9.6,0,10.3c0,1.9,2.3,2.5,3.8,2.1c0.8-0.2,1.5-0.7,2-1.4
		C6.2,10.4,6.5,9.7,7,9.2c0.8-0.9,2.2-0.6,2.9,0.2c-0.4-0.1-0.8-0.1-1.2,0C7.7,9.5,6.6,10.1,6,11c-0.5,0.7-0.6,1.6-0.3,2.4
		c0.1,0.2,0.1,0.4,0.2,0.6c-0.1-0.1-0.3-0.1-0.4-0.1c-0.7-0.1-1.3,0.4-1.3,1.1c-0.1,0.7,0.4,1.2,1.1,1.3c0.7,0.1,1.3-0.4,1.3-1.1
		c0-0.1,0-0.2,0-0.2c0,0,0,0,0,0c0.2-0.6-0.2-1.1-0.4-1.7c-0.2-0.5-0.1-1,0.1-1.5c0.1-0.3,0.3-0.7,0.5-0.9c0,0.4,0.3,0.6,0.6,0.8
		c-0.2,0.6-0.1,1.2,0.1,1.8c0.2,0.6,0.7,1.2,1.1,1.7c0.4,0.4,0.8,0.9,1,1.4c0.2,0.6,0,1.2-0.3,1.7c-0.3,0.4-0.7,0.5-1.1,0.3
		c0,0-0.1-0.1-0.1-0.1c0,0,0,0,0,0c0,0,0,0,0,0c0-0.1,0-0.1,0-0.1c0,0,0.1,0,0.1,0c0.1,0,0.2-0.1,0.3-0.1c0.6-0.4,0.4-1.4-0.4-1.4
		c-0.8,0-1.4,0.7-1.5,1.5c-0.1,0.8,0.5,1.5,1.3,1.7c0.8,0.3,1.7-0.1,2.2-0.6c0.6-0.6,0.9-1.5,0.9-2.3c0-0.8-0.3-1.6-0.7-2.2
		c-0.4-0.6-1-1.1-1.4-1.7c-0.6-1,0-2.3,1.1-2.7c-0.3,0.4-0.4,0.8-0.4,1.2c0,0.2-0.1,0.4-0.1,0.7c0,0.9,0.3,1.6,0.9,2.3
		c0.6,0.7,1.3,1,2.2,1c0.3,0,0.6,0,0.8,0c-0.2,0.2-0.4,0.5-0.4,0.8c-0.1,0.7,0.4,1.2,1.1,1.3c0.7,0.1,1.3-0.4,1.3-1.1
		c0.1-0.6-0.4-1.1-0.9-1.3c-0.1-0.1-0.1-0.1-0.2-0.1c-0.6-0.3-1.2-0.1-1.8-0.1c-0.5,0-1-0.3-1.4-0.5c-0.3-0.2-0.5-0.4-0.7-0.7
		c0.4,0.2,0.7,0,1-0.3c0.5,0.3,1,0.5,1.6,0.5c0.7,0.1,1.4-0.2,2-0.5c0.5-0.2,1.1-0.5,1.7-0.5c0.5,0,1.1,0.2,1.4,0.6
		c0.4,0.3,0.6,0.8,0.3,1.2c-0.1,0.1-0.2,0.2-0.3,0.2c-0.1,0-0.1,0-0.1-0.1c0,0,0-0.1,0-0.1c0-0.1,0-0.2,0-0.3
		c-0.2-0.7-1.2-0.7-1.4,0c-0.3,0.8,0.4,1.6,1.1,1.9c0.8,0.3,1.7-0.2,2.1-0.9C20.2,14.7,20,13.8,19.6,13.1z M8.1,18.2
		C8.1,18.2,8.1,18.2,8.1,18.2C8.1,18.2,8.1,18.2,8.1,18.2C8.1,18.2,8.1,18.2,8.1,18.2z M7.5,11c-0.1-0.1-0.2-0.3,0-0.2
		c0.1,0.1,0.4-0.1,0.3-0.2c-0.1-0.1-0.3-0.2-0.4-0.2c0.2-0.2,0.5-0.3,0.7-0.3c0,0.1,0,0.2,0,0.4c-0.2,0.2-0.3,0.4-0.4,0.7
		C7.6,11,7.5,11,7.5,11z M13.9,10.6c0.1,0.1,0.1,0.1,0.1,0.2c0,0.1-0.1,0.1-0.1,0.1c-0.1-0.2-0.4-0.2-0.4,0c0,0.2,0.1,0.3,0.2,0.4
		c-0.3,0-0.5-0.1-0.8-0.2c0.1-0.1,0.2-0.2,0.3-0.3C13.4,10.9,13.7,10.8,13.9,10.6z M12.6,7.1c0.1,0,0.3,0.2,0.1,0.2
		c-0.2,0-0.2,0.3,0,0.4c0.2,0,0.3,0,0.4-0.1C13,7.8,12.9,8,12.7,8.2c0-0.1-0.1-0.2-0.2-0.3c0-0.3,0-0.5,0-0.8
		C12.5,7.1,12.6,7.1,12.6,7.1z M9.7,7.5c-0.1,0-0.3,0-0.4,0.1C9.1,7.5,8.8,7.4,8.6,7.4c0-0.1,0-0.1,0-0.2c0-0.1,0.3-0.2,0.2,0
		C8.7,7.4,9,7.5,9.1,7.3c0.1-0.1,0.1-0.3,0.1-0.4C9.4,7.1,9.6,7.3,9.7,7.5z M10.8,13.2c-0.1,0-0.1,0.1-0.2,0c-0.1,0-0.1-0.1,0-0.1
		c0.2-0.1,0.1-0.4-0.1-0.3c-0.2,0.1-0.3,0.2-0.3,0.3c-0.1-0.3-0.1-0.5-0.1-0.8c0.1,0.1,0.2,0.1,0.4,0.2c0.1,0.2,0.3,0.4,0.5,0.6
		C10.9,13.1,10.8,13.1,10.8,13.2z"/>
</g>
</svg>
