<?xml version="1.0" encoding="utf-8"?>
<!-- Generator: Adobe Illustrator 19.0.0, SVG Export Plug-In . SVG Version: 6.00 Build 0)  -->
<svg version="1.1" id="Capa_1" xmlns="http://www.w3.org/2000/svg" xmlns:xlink="http://www.w3.org/1999/xlink" x="0px" y="0px"
	 viewBox="0 0 20 20" style="enable-background:new 0 0 20 20;" xml:space="preserve">
<style type="text/css">
	.st0{fill:#57167D;}
</style>
<g id="XMLID_262_">
	<path id="XMLID_332_" class="st0" d="M1.6,11.6c0,0-0.1,0-0.1-0.1c-0.4-0.5-1,0-1,0.4c0,0.6,0.5,1,1.1,1.2c0.2,0.1,0.3,0.1,0.5,0.1
		C2,13,1.9,12.7,1.8,12.4C1.7,12.1,1.7,11.8,1.6,11.6z M1.4,12.1c-0.1,0.2-0.2,0.2-0.4,0.2c-0.2-0.1-0.2-0.2-0.2-0.4
		c0.1-0.2,0.2-0.2,0.4-0.2C1.4,11.8,1.5,12,1.4,12.1z"/>
	<path id="XMLID_329_" class="st0" d="M8.9,18.3C8.9,18.3,8.9,18.3,8.9,18.3c-0.5,0.2-0.5,0.8-0.1,1c0.5,0.3,1.1,0,1.5-0.4
		c0.2-0.2,0.3-0.4,0.4-0.6C10.1,18.4,9.5,18.4,8.9,18.3z M9.5,19.1c-0.1,0.1-0.3,0.2-0.4,0.1c-0.1-0.1-0.2-0.3-0.1-0.4
		c0.1-0.1,0.3-0.2,0.4-0.1C9.6,18.8,9.6,19,9.5,19.1z"/>
	<path id="XMLID_326_" class="st0" d="M4.1,16.1c-0.6-0.2-0.9,0.6-0.5,1c0.4,0.5,1.1,0.5,1.6,0.3c0.1,0,0.3-0.1,0.4-0.2
		C5.1,16.9,4.6,16.5,4.1,16.1C4.1,16.1,4.1,16.1,4.1,16.1z M4.2,17.1c-0.2,0.1-0.3,0-0.4-0.2c-0.1-0.2,0-0.3,0.2-0.4
		c0.2-0.1,0.3,0,0.4,0.2S4.3,17,4.2,17.1z"/>
	<path id="XMLID_323_" class="st0" d="M2.2,6.4c0-0.6-0.8-0.7-1.1-0.2C0.8,6.6,1,7.2,1.3,7.7C1.4,7.8,1.6,8,1.7,8.1
		C1.8,7.6,2,7,2.3,6.5C2.3,6.5,2.2,6.4,2.2,6.4z M1.8,6.8C1.7,6.9,1.5,6.9,1.4,6.7C1.3,6.6,1.3,6.4,1.5,6.3c0.1-0.1,0.3-0.1,0.4,0.1
		C2,6.5,1.9,6.7,1.8,6.8z"/>
	<path id="XMLID_320_" class="st0" d="M15.9,3.9C15.9,3.9,15.9,3.9,15.9,3.9c0.7,0.2,1-0.6,0.6-1c-0.4-0.5-1.1-0.5-1.6-0.3
		c-0.1,0-0.3,0.1-0.4,0.2c0.4,0.3,0.9,0.6,1.3,0.9C15.7,3.8,15.8,3.8,15.9,3.9z M15.9,3c0.2-0.1,0.3,0,0.4,0.2
		c0.1,0.2,0,0.3-0.2,0.4c-0.2,0.1-0.3,0-0.4-0.2C15.7,3.2,15.8,3,15.9,3z"/>
	<path id="XMLID_317_" class="st0" d="M5.9,2.7c0,0,0-0.1,0-0.1c0.3-0.4-0.1-1-0.6-0.9C4.6,1.9,4.4,2.5,4.4,3.1c0,0.2,0,0.4,0.1,0.7
		C4.9,3.3,5.3,3,5.9,2.7z M5.3,2.1c0.2,0,0.3,0.1,0.3,0.3c0,0.2-0.1,0.3-0.3,0.3C5.2,2.7,5,2.5,5,2.4C5,2.2,5.2,2.1,5.3,2.1z"/>
	<path id="XMLID_314_" class="st0" d="M11,1.7c0,0,0.1-0.1,0.1-0.1c0.5-0.2,0.4-0.8,0-1c-0.5-0.3-1.1,0-1.5,0.4
		C9.5,1.2,9.4,1.4,9.3,1.7C9.9,1.6,10.5,1.7,11,1.7z M10.6,0.9c0.1-0.1,0.3-0.2,0.4-0.1c0.1,0.1,0.2,0.3,0.1,0.4
		c-0.1,0.1-0.3,0.2-0.4,0.1C10.5,1.3,10.5,1.1,10.6,0.9z"/>
	<path id="XMLID_311_" class="st0" d="M17.8,13.6c0,0.6,0.8,0.7,1.1,0.2c0.3-0.5,0.2-1.1-0.1-1.5c-0.1-0.1-0.2-0.3-0.3-0.4
		C18.2,12.5,18,13.1,17.8,13.6C17.8,13.6,17.8,13.6,17.8,13.6z M18.3,13.3c0.1-0.1,0.3-0.1,0.4,0.1c0.1,0.1,0.1,0.3-0.1,0.4
		c-0.1,0.1-0.3,0.1-0.4-0.1C18.1,13.6,18.1,13.4,18.3,13.3z"/>
	<path id="XMLID_308_" class="st0" d="M19.5,8.1c0-0.6-0.5-1-1.1-1.2c-0.2,0-0.3-0.1-0.5-0.1c0.2,0.6,0.4,1.1,0.5,1.7c0,0,0,0,0,0
		C18.8,9,19.5,8.5,19.5,8.1z M19.2,8.1c-0.1,0.2-0.2,0.2-0.4,0.2c-0.2-0.1-0.2-0.2-0.2-0.4c0.1-0.2,0.2-0.2,0.4-0.2
		C19.2,7.8,19.3,7.9,19.2,8.1z"/>
	<path id="XMLID_305_" class="st0" d="M14.1,17.4c-0.2,0.4,0.2,0.9,0.7,0.8c0.6-0.1,0.9-0.7,0.9-1.3c0-0.2,0-0.4,0-0.5
		C15.1,16.8,14.6,17.1,14.1,17.4z M14.8,18c-0.2,0-0.3-0.1-0.3-0.3c0-0.2,0.1-0.3,0.3-0.3c0.2,0,0.3,0.1,0.3,0.3
		C15.1,17.9,14.9,18,14.8,18z"/>
	<path id="XMLID_273_" class="st0" d="M19.4,9c0.6-0.3,0.7-0.9,0.6-1.4c-0.3-1-1.3-1.3-2.3-1.4c-0.4-0.7-0.8-1.3-1.3-1.9
		c0.3-0.1,0.6-0.3,0.7-0.6c0.3-0.5,0-1.2-0.5-1.5c-0.8-0.6-1.9-0.3-2.7,0.2c-0.7-0.3-1.4-0.6-2.2-0.7C11.9,1.6,12,1.3,12,1
		c-0.1-0.6-0.6-0.9-1.1-1C9.8-0.1,9,0.8,8.6,1.8C7.9,1.9,7.2,2.1,6.5,2.4c0-0.3-0.1-0.6-0.3-0.9C5.7,1.1,5.1,1.2,4.6,1.5
		C3.7,2,3.7,3.2,4,4.1C3.6,4.5,3.2,5,2.9,5.4C2.8,5.6,2.7,5.7,2.6,5.9C2.4,5.6,2.1,5.4,1.8,5.4C1.2,5.3,0.7,5.7,0.5,6.2
		c-0.4,1,0.3,1.9,1.1,2.5c-0.1,0.7-0.1,1.5-0.1,2.2c-0.3-0.1-0.6-0.1-0.9,0c-0.6,0.3-0.7,0.9-0.6,1.4c0.3,1,1.3,1.3,2.3,1.4
		c0.3,0.7,0.8,1.3,1.3,1.8c-0.3,0.1-0.6,0.3-0.7,0.6c-0.3,0.5,0,1.2,0.5,1.5c0.8,0.6,1.8,0.3,2.7-0.2c0.1,0,0.1,0.1,0.2,0.1
		c0.6,0.3,1.3,0.5,1.9,0.7C8.1,18.5,8,18.8,8,19c0.1,0.6,0.6,0.9,1.1,1c1,0.1,1.8-0.8,2.2-1.7c0.8-0.1,1.5-0.3,2.2-0.6c0,0,0,0,0,0
		c0,0.3,0.1,0.6,0.3,0.8c0.4,0.4,1.1,0.3,1.6,0.1c0.8-0.5,0.9-1.6,0.7-2.5c0.5-0.5,1-1.1,1.4-1.8c0.2,0.2,0.5,0.4,0.8,0.4
		c0.6,0.1,1.1-0.3,1.3-0.8c0.4-0.9-0.2-1.8-1-2.5c0.1-0.4,0.1-0.9,0.1-1.3c0-0.3,0-0.6-0.1-0.9C18.8,9.2,19.1,9.2,19.4,9z
		 M15.8,15.2c0,0,0-0.1-0.1-0.1c-0.3-0.6-0.7-1-1.2-1.4c-0.2-0.2-0.4-0.3-0.6-0.4c0,0,0.1-0.1,0.1-0.1c0.5-0.6,0.9-1.4,1-2.2
		c0.3-0.1,0.5-0.1,0.8-0.1c0.7,0,1.3,0.2,1.9,0.5C17.4,12.8,16.7,14.1,15.8,15.2z M8,17.4c-0.4-0.1-0.8-0.3-1.2-0.4
		c0,0,0.1-0.1,0.1-0.1c0.4-0.4,0.7-0.9,1-1.5C8,15.1,8,14.9,8.1,14.6c0.8,0.3,1.7,0.4,2.5,0.3c0.1,0.2,0.2,0.4,0.3,0.7
		c0.2,0.6,0.2,1.3,0.1,1.9C10,17.7,9,17.6,8,17.4z M3.3,6.3c0.3-0.5,0.6-0.9,1-1.3c0,0,0,0,0,0C4.6,5.5,5,6,5.5,6.4
		C5.7,6.6,6,6.7,6.2,6.8c-0.4,0.4-0.7,1-0.9,1.5C5.2,8.6,5.1,8.8,5.1,9C4.8,9.1,4.5,9.1,4.2,9.1C3.6,9.1,3,9,2.4,8.7
		C2.6,7.8,2.9,7,3.3,6.3z M15.4,4.6c0.5,0.5,1,1,1.3,1.7c0,0-0.1,0-0.1,0c-0.6,0.1-1.3,0.3-1.8,0.7c-0.2,0.1-0.4,0.3-0.5,0.4
		c-0.5-0.7-1.1-1.3-1.8-1.7c0-0.3,0.1-0.5,0.2-0.8c0.2-0.6,0.6-1.1,1.1-1.6C14.3,3.7,14.9,4.1,15.4,4.6z M2.9,13
		c-0.5-1.2-0.7-2.5-0.6-3.8C2.9,9.5,3.5,9.6,4,9.7c0.3,0,0.6,0,1,0c-0.1,0.8,0.1,1.7,0.4,2.4c-0.2,0.2-0.4,0.4-0.6,0.5
		C4.3,13,3.7,13.2,3,13.3C3,13.2,3,13.1,2.9,13z M14.7,10.4c-0.3,0.1-0.5,0.2-0.8,0.2c-0.7,0.2-1.5,0.6-2.2,0.5
		c-0.3,0-0.5-0.1-0.8-0.2c0.1-0.1,0.2-0.2,0.3-0.4c0.5,0,1-0.2,1.4-0.5c0.7-0.5,1.2-1.3,1.7-2c0.2,0.6,0.4,1.2,0.4,1.8
		C14.7,10.2,14.7,10.3,14.7,10.4z M5.4,9.5c0.2-0.1,0.5-0.1,0.7-0.2c0.7-0.2,1.5-0.6,2.2-0.5C8.7,8.8,9,8.9,9.2,9
		C9.1,9.1,9,9.2,8.9,9.4c-0.5,0-1.1,0.2-1.5,0.5c-0.7,0.5-1.2,1.2-1.7,1.9c-0.2-0.5-0.3-1.1-0.3-1.7C5.4,9.9,5.4,9.7,5.4,9.5z
		 M11.9,6.7c0,0.7,0.1,1.5-0.1,2.1c-0.1,0.3-0.3,0.5-0.5,0.7c-0.1-0.1-0.2-0.3-0.3-0.4c0.2-0.5,0.1-1,0-1.5
		c-0.3-0.8-0.8-1.4-1.3-2.1c0.1,0,0.3,0,0.4,0c0.6,0,1.3,0.1,1.8,0.4C11.8,6.1,11.8,6.4,11.9,6.7z M9.6,6.4c0.5,0.6,1,1.2,1.1,1.9
		c0.1,0.2,0.1,0.5,0,0.7c-0.1-0.1-0.3-0.1-0.4-0.2c0,0,0,0,0-0.1c-0.1-0.5-0.5-0.9-1-1.2C8.6,7,7.8,6.8,7.1,6.6c0.6-0.5,1.2-0.8,2-1
		C9.2,5.9,9.4,6.1,9.6,6.4z M7.4,7.3c0.7,0.2,1.5,0.4,2,0.8C9.7,8.3,9.9,8.5,10,8.8c-0.2,0-0.3,0-0.4,0.1C9.1,8.5,8.5,8.4,8,8.4
		c-0.9,0-1.6,0.3-2.5,0.6C5.7,8.2,6.1,7.5,6.6,7C6.9,7.1,7.1,7.2,7.4,7.3z M6.6,11.4c0.4-0.6,0.8-1.2,1.4-1.6
		c0.2-0.1,0.5-0.2,0.7-0.2c0,0.1-0.1,0.3-0.1,0.4c0,0,0,0,0,0.1c-0.4,0.3-0.8,0.8-1,1.3c-0.3,0.8-0.2,1.7-0.2,2.5
		c-0.6-0.4-1.2-1-1.6-1.6C6.2,12,6.4,11.7,6.6,11.4z M8.1,13.3c0-0.7-0.1-1.5,0.1-2.1c0.1-0.3,0.3-0.5,0.5-0.7
		c0.1,0.2,0.1,0.3,0.2,0.4c-0.2,0.5-0.2,1.1,0,1.5c0.3,0.8,0.9,1.5,1.4,2.2c-0.1,0-0.2,0-0.3,0c-0.7,0-1.3-0.1-1.9-0.4
		C8.2,13.9,8.2,13.6,8.1,13.3z M10.4,13.6c-0.5-0.6-1-1.2-1.1-1.9c-0.1-0.2-0.1-0.5,0-0.7c0.1,0.1,0.3,0.2,0.5,0.2c0,0,0,0,0,0
		c0.1,0.5,0.5,0.9,1,1.2c0.7,0.5,1.5,0.7,2.3,0.9c-0.6,0.5-1.3,0.8-2,1C10.8,14.2,10.6,13.9,10.4,13.6z M12.6,12.7
		c-0.7-0.2-1.5-0.4-2-0.8c-0.2-0.2-0.4-0.4-0.5-0.6c0.2,0,0.3,0,0.5-0.1c0.4,0.3,0.9,0.4,1.4,0.4c0.9,0,1.7-0.4,2.6-0.6
		c-0.2,0.7-0.6,1.4-1.1,2C13.2,12.9,12.9,12.8,12.6,12.7z M13.4,8.6c-0.4,0.6-0.8,1.2-1.4,1.6c-0.2,0.1-0.4,0.2-0.6,0.2
		c0-0.1,0-0.2,0-0.3c0-0.1,0-0.1,0-0.2c0.4-0.3,0.7-0.8,0.9-1.2c0.3-0.8,0.2-1.6,0.2-2.5c0.6,0.4,1.2,0.9,1.6,1.6
		C13.8,8,13.6,8.3,13.4,8.6z M13.1,3.1c-0.4,0.4-0.7,0.9-1,1.5c-0.1,0.3-0.2,0.6-0.2,0.8c-0.3-0.1-0.6-0.2-1-0.3
		c-0.5-0.1-1-0.1-1.5,0C9.3,4.9,9.2,4.7,9.1,4.4C8.9,3.8,8.8,3.1,9,2.5C10.4,2.3,11.9,2.5,13.1,3.1C13.1,3.1,13.1,3.1,13.1,3.1z
		 M8.5,4.5C8.6,4.8,8.7,5,8.8,5.2C8,5.5,7.3,5.9,6.6,6.4C6.4,6.3,6.1,6.1,5.8,6C5.3,5.6,4.9,5.1,4.7,4.6c1-1,2.3-1.6,3.7-1.9
		C8.3,3.3,8.3,3.9,8.5,4.5z M3.3,13.8C3.3,13.8,3.4,13.8,3.3,13.8c0.7-0.1,1.3-0.4,1.9-0.7c0.2-0.1,0.4-0.3,0.6-0.5
		c0.4,0.7,1.1,1.3,1.8,1.8c0,0.3-0.1,0.5-0.2,0.8c-0.2,0.6-0.6,1.1-1.1,1.6C5.1,16,4,15,3.3,13.8z M11.5,15.5
		c-0.1-0.2-0.2-0.4-0.3-0.6c0.8-0.2,1.6-0.6,2.3-1.2c0.2,0.1,0.5,0.2,0.7,0.4c0.5,0.4,0.9,0.9,1.2,1.5c-0.2,0.2-0.4,0.3-0.6,0.5
		c-1,0.7-2.1,1.2-3.2,1.4c0,0,0,0,0,0C11.7,16.8,11.7,16.1,11.5,15.5z M17.7,10.8c-0.5-0.3-1.2-0.5-1.8-0.5c-0.3,0-0.6,0-0.9,0
		c0-0.1,0-0.2,0-0.3c0-0.8-0.2-1.5-0.5-2.1c0.2-0.2,0.3-0.3,0.5-0.5C15.7,7,16.3,6.8,17,6.7c0.5,1,0.8,2.2,0.8,3.3
		C17.8,10.3,17.8,10.6,17.7,10.8C17.7,10.8,17.7,10.8,17.7,10.8z M14.8,2.7c0.6-0.2,1.2-0.2,1.6,0.3c0.4,0.4,0.1,1.2-0.5,1
		c0,0,0,0-0.1,0c-0.1-0.1-0.1-0.1-0.2-0.2c-0.4-0.3-0.8-0.6-1.3-0.9C14.6,2.8,14.7,2.7,14.8,2.7z M9.7,1c0.4-0.4,0.9-0.7,1.5-0.4
		c0.4,0.2,0.4,0.9,0,1c0,0-0.1,0-0.1,0.1c-0.6-0.1-1.2-0.1-1.8,0C9.4,1.4,9.5,1.2,9.7,1z M5.3,1.7c0.5-0.1,0.9,0.4,0.6,0.9
		c0,0,0,0.1,0,0.1c-0.5,0.3-1,0.6-1.4,1c0-0.2-0.1-0.4-0.1-0.7C4.4,2.5,4.6,1.9,5.3,1.7z M1.3,7.7C1,7.2,0.8,6.6,1.1,6.1
		c0.3-0.4,1.1-0.3,1.1,0.2c0,0.1,0,0.1,0,0.1C2,7,1.8,7.6,1.7,8.1C1.6,8,1.4,7.8,1.3,7.7z M1.6,13.1C1,13,0.5,12.6,0.5,11.9
		c0-0.5,0.7-0.9,1-0.4c0,0,0.1,0.1,0.1,0.1c0,0.3,0.1,0.5,0.2,0.8C1.9,12.7,2,13,2.1,13.3C2,13.2,1.8,13.2,1.6,13.1z M5.2,17.3
		c-0.6,0.2-1.2,0.2-1.6-0.3c-0.4-0.4-0.1-1.2,0.5-1c0,0,0.1,0,0.1,0c0.4,0.4,0.9,0.8,1.4,1.1C5.4,17.2,5.3,17.3,5.2,17.3z M10.3,19
		c-0.4,0.4-0.9,0.7-1.5,0.4c-0.4-0.2-0.4-0.9,0-1c0,0,0,0,0,0c0.6,0.1,1.2,0.1,1.8,0C10.6,18.6,10.5,18.8,10.3,19z M14.7,18.3
		c-0.5,0.1-0.9-0.4-0.7-0.8c0.6-0.3,1.1-0.6,1.5-1c0,0.2,0,0.3,0,0.5C15.6,17.5,15.4,18.1,14.7,18.3z M18.7,12.3
		c0.3,0.5,0.5,1,0.1,1.5c-0.3,0.4-1.1,0.3-1.1-0.2c0,0,0,0,0,0c0.3-0.5,0.5-1.1,0.6-1.7C18.5,12.1,18.6,12.2,18.7,12.3z M18.5,8.5
		C18.5,8.5,18.5,8.5,18.5,8.5c-0.1-0.6-0.3-1.2-0.6-1.7c0.2,0,0.3,0.1,0.5,0.1C19,7,19.5,7.4,19.5,8.1C19.5,8.5,18.8,9,18.5,8.5z"/>
	<ellipse id="XMLID_272_" class="st0" cx="5.3" cy="2.4" rx="0.3" ry="0.3"/>
	<path id="XMLID_271_" class="st0" d="M1.5,6.3C1.3,6.4,1.3,6.6,1.4,6.7c0.1,0.1,0.3,0.2,0.4,0.1C1.9,6.7,2,6.5,1.9,6.4
		C1.8,6.2,1.6,6.2,1.5,6.3z"/>
	<path id="XMLID_270_" class="st0" d="M1.2,11.8c-0.2-0.1-0.3,0-0.4,0.2c-0.1,0.2,0,0.3,0.2,0.4c0.2,0.1,0.3,0,0.4-0.2
		C1.5,12,1.4,11.8,1.2,11.8z"/>
	<path id="XMLID_269_" class="st0" d="M4,16.5c-0.2,0.1-0.2,0.2-0.2,0.4C3.8,17,4,17.1,4.2,17.1c0.2-0.1,0.2-0.2,0.2-0.4
		S4.1,16.5,4,16.5z"/>
	<path id="XMLID_268_" class="st0" d="M9.4,18.7c-0.1-0.1-0.3-0.1-0.4,0.1c-0.1,0.1-0.1,0.3,0.1,0.4c0.1,0.1,0.3,0.1,0.4-0.1
		C9.6,19,9.6,18.8,9.4,18.7z"/>
	<ellipse id="XMLID_267_" class="st0" cx="14.8" cy="17.7" rx="0.3" ry="0.3"/>
	<path id="XMLID_266_" class="st0" d="M18.6,13.8c0.1-0.1,0.2-0.3,0.1-0.4c-0.1-0.1-0.3-0.2-0.4-0.1c-0.1,0.1-0.2,0.3-0.1,0.4
		C18.3,13.8,18.5,13.8,18.6,13.8z"/>
	<path id="XMLID_265_" class="st0" d="M19,7.7c-0.2-0.1-0.3,0-0.4,0.2c-0.1,0.2,0,0.3,0.2,0.4c0.2,0.1,0.3,0,0.4-0.2
		C19.3,7.9,19.2,7.8,19,7.7z"/>
	<path id="XMLID_264_" class="st0" d="M16.1,3.6c0.2-0.1,0.2-0.2,0.2-0.4C16.3,3,16.1,2.9,15.9,3c-0.2,0.1-0.2,0.2-0.2,0.4
		C15.8,3.5,16,3.6,16.1,3.6z"/>
	<path id="XMLID_263_" class="st0" d="M10.7,1.4c0.1,0.1,0.3,0.1,0.4-0.1C11.2,1.2,11.1,1,11,0.9c-0.1-0.1-0.3-0.1-0.4,0.1
		C10.5,1.1,10.5,1.3,10.7,1.4z"/>
</g>
</svg>
