<?xml version="1.0" encoding="utf-8"?>
<!-- Generator: Adobe Illustrator 19.0.0, SVG Export Plug-In . SVG Version: 6.00 Build 0)  -->
<svg version="1.1" id="Capa_1" xmlns="http://www.w3.org/2000/svg" xmlns:xlink="http://www.w3.org/1999/xlink" x="0px" y="0px"
	 viewBox="0 0 20 20" style="enable-background:new 0 0 20 20;" xml:space="preserve">
<style type="text/css">
	.st0{fill:#001D7E;}
</style>
<g id="XMLID_539_">
	<path id="XMLID_546_" class="st0" d="M17.3,10.8c-0.9-0.1-1.7,0-2.5,0.3c-0.6,0.3-1.2,0.7-1.9,0.9c-1.1,0.3-2-0.5-2.3-1.3
		c0.2,0.1,0.3,0.2,0.5,0.2c0.7,0.2,1.4,0.1,2.1-0.2c0.6-0.2,1.1-0.7,1.4-1.2C15,8.9,15,8.2,15,7.4c0-0.6,0-1.2,0.3-1.7
		c0.2-0.5,0.7-0.8,1.2-1c0.4-0.1,1-0.1,1.2,0.4c0,0.1,0,0.1,0,0.2c0,0.1,0,0.1,0,0.1c0-0.1-0.1,0,0,0c0,0,0,0,0,0c0,0,0,0-0.1,0
		c0,0,0,0,0,0c-0.2-0.1-0.3-0.1-0.5-0.1c-0.7-0.1-1,0.8-0.5,1.2c0.7,0.6,1.5,0.4,2.2-0.1c0.7-0.5,0.6-1.5,0.2-2.1
		c-1-1.5-3.3-1-4.4,0.1c-0.6,0.6-0.9,1.3-1,2c-0.1,0.8,0,1.6-0.2,2.3c-0.2,0.6-0.7,0.9-1.3,1.1c-0.4,0.1-0.8,0.1-1.2,0.1
		c0.2-0.1,0.4-0.2,0.5-0.3c0.6-0.5,0.8-1.1,0.9-1.8c0-0.6-0.2-1.3-0.6-1.8c-0.4-0.6-1-0.9-1.7-1.3C9.5,4.3,9,4,8.7,3.6
		C8.3,3.1,8.3,2.5,8.5,2c0.1-0.2,0.2-0.4,0.4-0.5C9,1.3,9.2,1.3,9.4,1.4c0,0,0.2,0.1,0.1,0c0.1,0.1,0,0,0,0.1c0,0,0,0.1,0,0.1
		c0,0,0,0-0.1,0C9.3,1.7,9.2,1.8,9.1,2C8.7,2.5,9.4,3.2,10,3c0.8-0.2,1.1-1.1,1-1.8C10.9,0.4,10,0,9.2,0c-0.9,0-1.6,0.5-2,1.2
		C6.8,1.9,6.8,2.8,7.1,3.6C7.3,4.4,7.8,5,8.5,5.5c0.6,0.4,1.2,0.6,1.8,1.1c0.9,0.7,0.8,2,0.1,2.7c0-0.2,0-0.4,0-0.6
		C10.2,8,9.8,7.5,9.2,7.1c-1.2-0.8-2.8-0.6-4,0C4.7,7.4,4.2,7.7,3.6,7.8C3,8,2.4,7.8,2,7.4C1.6,7.1,1.3,6.7,1.6,6.3
		c0.1-0.1,0.2-0.2,0.3-0.2c0,0,0.1,0.1,0.1,0.1c0,0,0,0,0,0c0,0,0,0,0,0C2,6.4,2,6.5,2.1,6.7c0.3,0.6,1.3,0.4,1.4-0.2
		C3.7,5.7,3.1,5,2.2,4.8c-0.8-0.2-1.7,0.3-2,1c-0.8,1.6,0.9,3.2,2.5,3.4c0.9,0.1,1.7,0,2.5-0.3C5.8,8.6,6.4,8.1,7.1,8
		c1.1-0.3,2,0.5,2.3,1.3C9.3,9.2,9.1,9.1,8.9,9.1C8.2,8.8,7.5,8.9,6.8,9.2c-0.6,0.2-1.1,0.7-1.4,1.2C5,11.1,5,11.8,5,12.6
		c0,0.6,0,1.2-0.3,1.7c-0.2,0.5-0.7,0.8-1.2,1c-0.4,0.1-1,0.1-1.2-0.4c0-0.1,0-0.1,0-0.2c0-0.1,0-0.1,0-0.1c0,0.1,0.1,0,0,0
		c0,0,0,0,0,0c0,0,0,0,0.1,0c0,0,0,0,0,0c0.2,0.1,0.3,0.1,0.5,0.1c0.7,0.1,1-0.8,0.5-1.2c-0.7-0.6-1.5-0.4-2.2,0.1
		c-0.7,0.5-0.6,1.5-0.2,2.1c1,1.5,3.3,1,4.4-0.1c0.6-0.6,0.9-1.3,1-2c0.1-0.8,0-1.6,0.2-2.3c0.2-0.6,0.7-0.9,1.3-1.1
		C8.3,10,8.7,10,9.1,10.1c-0.2,0.1-0.4,0.2-0.5,0.3c-0.6,0.5-0.8,1.1-0.9,1.8c0,0.6,0.2,1.3,0.6,1.8c0.4,0.6,1,0.9,1.7,1.3
		c0.5,0.3,1,0.6,1.3,1c0.3,0.5,0.4,1.1,0.2,1.6c-0.1,0.2-0.2,0.4-0.4,0.5c-0.2,0.1-0.4,0.2-0.6,0.1c0,0-0.2-0.1-0.1,0
		c-0.1-0.1,0,0,0-0.1c0,0,0-0.1,0-0.1c0,0,0,0,0.1,0c0.2-0.1,0.3-0.2,0.4-0.3c0.4-0.5-0.3-1.2-0.9-1c-0.8,0.2-1.1,1.1-1,1.8
		c0.1,0.8,1,1.2,1.8,1.2c0.9,0,1.6-0.5,2-1.2c0.4-0.7,0.4-1.6,0.2-2.4c-0.3-0.8-0.8-1.4-1.5-1.9c-0.6-0.4-1.2-0.6-1.8-1.1
		c-0.9-0.7-0.8-2-0.1-2.7c0,0.2,0,0.4,0,0.6c0.1,0.6,0.6,1.1,1.1,1.5c1.2,0.8,2.8,0.6,4,0c0.5-0.3,1.1-0.6,1.7-0.7
		c0.5-0.1,1.2,0.1,1.6,0.4c0.4,0.3,0.7,0.7,0.4,1.2c-0.1,0.1-0.2,0.2-0.3,0.2c0,0-0.1-0.1-0.1-0.1c0,0,0,0,0,0c0,0,0,0,0,0
		c0-0.2-0.1-0.3-0.1-0.5c-0.3-0.6-1.3-0.4-1.4,0.2c-0.2,0.8,0.4,1.5,1.3,1.7c0.8,0.2,1.7-0.3,2-1C20.6,12.6,18.9,11.1,17.3,10.8z"/>
	<ellipse id="XMLID_545_" class="st0" cx="5.1" cy="4.2" rx="1.1" ry="1"/>
	<path id="XMLID_544_" class="st0" d="M13.2,4c0.5-0.3,0.7-0.9,0.3-1.4c-0.3-0.5-1-0.6-1.5-0.3c-0.5,0.3-0.7,0.9-0.3,1.4
		C12,4.2,12.7,4.3,13.2,4z"/>
	<path id="XMLID_543_" class="st0" d="M18.3,8.1c-0.5-0.3-1.2-0.1-1.5,0.4c-0.3,0.5-0.1,1.1,0.4,1.4c0.5,0.3,1.2,0.1,1.5-0.4
		C19,9,18.8,8.3,18.3,8.1z"/>
	<path id="XMLID_542_" class="st0" d="M15.1,14.6c-0.6,0-1.1,0.5-1,1.1c0,0.6,0.6,1,1.2,1c0.6,0,1.1-0.5,1-1.1
		C16.2,15,15.7,14.5,15.1,14.6z"/>
	<path id="XMLID_541_" class="st0" d="M6.6,16.1c-0.5,0.3-0.7,0.9-0.3,1.4c0.3,0.5,1,0.6,1.5,0.3c0.5-0.3,0.7-0.9,0.3-1.4
		C7.8,15.9,7.1,15.8,6.6,16.1z"/>
	<path id="XMLID_540_" class="st0" d="M1.3,11.8c0.5,0.3,1.2,0.1,1.5-0.4C3.2,10.9,3,10.3,2.5,10s-1.2-0.1-1.5,0.4
		C0.6,10.8,0.8,11.5,1.3,11.8z"/>
</g>
</svg>
