<?xml version="1.0" encoding="utf-8"?>
<!-- Generator: Adobe Illustrator 19.0.0, SVG Export Plug-In . SVG Version: 6.00 Build 0)  -->
<svg version="1.1" id="Capa_1" xmlns="http://www.w3.org/2000/svg" xmlns:xlink="http://www.w3.org/1999/xlink" x="0px" y="0px"
	 viewBox="0 0 20 20" style="enable-background:new 0 0 20 20;" xml:space="preserve">
<style type="text/css">
	.st0{fill:#008F45;}
</style>
<g id="XMLID_408_">
	<g id="XMLID_453_">
		<path id="XMLID_496_" class="st0" d="M9.6,1.6c0,0,0.1,0,0.2,0l0.1,0.2c0,0-0.1,0.1-0.1,0.1C9.6,2.2,9.7,2.8,10,3
			c0.3,0.2,0.7,0.2,1,0l0.2,0.2c0,0.1,0,0.2,0.1,0.2c0.1,0.1,0.2,0,0.3,0c0.1-0.1,0-0.2,0-0.3c0,0-0.1,0-0.2,0l-0.2-0.2c0,0,0,0,0,0
			C11.4,2.5,11.4,2,11,1.7c-0.3-0.2-0.7-0.2-0.9,0L9.9,1.5c0-0.1,0-0.2-0.1-0.2c-0.1-0.1-0.2,0-0.3,0C9.5,1.4,9.5,1.5,9.6,1.6z"/>
		<path id="XMLID_495_" class="st0" d="M7.9,6.4c0.1,0,0.1,0,0.1-0.1l0.3,0c0,0.2,0.1,0.5,0.3,0.6c0.4,0.3,0.9,0.2,1.1-0.2
			C9.9,6.7,10,6.5,10,6.4l0.2,0c0,0.1,0.1,0.1,0.2,0.1c0.1,0,0.2-0.1,0.2-0.2c0-0.1-0.1-0.2-0.2-0.2c-0.1,0-0.1,0-0.1,0.1l-0.2,0
			C10,6,9.9,5.8,9.7,5.6C9.3,5.4,8.8,5.4,8.5,5.8C8.5,5.9,8.4,6.1,8.4,6.2l-0.3,0C8,6.1,8,6,7.9,6.1c-0.1,0-0.2,0.1-0.2,0.2
			C7.7,6.4,7.8,6.4,7.9,6.4z"/>
		<path id="XMLID_494_" class="st0" d="M8.3,8.2c-0.1,0-0.1,0.1-0.1,0.2c0,0.1,0.1,0.1,0.2,0.1c0.1,0,0.1-0.1,0.1-0.1l0.4-0.1
			c0,0.1,0.1,0.3,0.2,0.3C9.4,8.9,9.8,8.9,10,8.6c0.1-0.1,0.1-0.2,0.1-0.4l0.3,0c0,0.1,0.1,0.1,0.2,0.1c0.1,0,0.1-0.1,0.1-0.2
			c0-0.1-0.1-0.1-0.2-0.1C10.4,8,10.3,8,10.3,8l-0.3,0C10,8,9.9,7.8,9.8,7.8C9.6,7.6,9.2,7.6,9,7.9C8.9,8,8.9,8.1,8.9,8.3L8.5,8.3
			C8.5,8.2,8.4,8.2,8.3,8.2z"/>
		<path id="XMLID_493_" class="st0" d="M8.3,3.7c0.1,0,0.1,0,0.2,0l0.1,0.1C8.4,4.1,8.5,4.6,8.9,4.9c0.4,0.3,1,0.2,1.3-0.2
			c0,0,0,0,0,0l0.2,0.1c0,0.1,0,0.2,0.1,0.2c0.1,0,0.2,0,0.3-0.1c0-0.1,0-0.2-0.1-0.3c-0.1,0-0.1,0-0.2,0l-0.2-0.1
			c0.2-0.4,0.1-0.9-0.3-1.2C9.6,3.1,9,3.2,8.7,3.6L8.5,3.5c0-0.1,0-0.2-0.1-0.2c-0.1,0-0.2,0-0.3,0.1C8.1,3.5,8.2,3.6,8.3,3.7z"/>
		<path id="XMLID_492_" class="st0" d="M11.1,0.9c0,0,0.1,0,0.1,0L11.4,1c0,0,0,0,0,0c-0.2,0.2-0.1,0.5,0.1,0.7
			c0.2,0.1,0.4,0.1,0.6,0l0.1,0.1c0,0.1,0,0.1,0,0.1c0.1,0,0.1,0,0.2,0c0-0.1,0-0.1,0-0.2c0,0-0.1,0-0.1,0l-0.1-0.1c0,0,0,0,0,0
			c0.2-0.2,0.1-0.5-0.1-0.7c-0.2-0.1-0.4-0.1-0.6,0l-0.1-0.1c0-0.1,0-0.1,0-0.1c-0.1,0-0.1,0-0.2,0C11.1,0.7,11.1,0.8,11.1,0.9z"/>
		<path id="XMLID_491_" class="st0" d="M12.3,0.3C12.4,0.3,12.4,0.3,12.3,0.3l0.2,0.2c-0.1,0.2-0.1,0.4,0.1,0.6
			c0.1,0.1,0.3,0.1,0.4,0l0.1,0.1c0,0,0,0.1,0,0.1c0,0,0.1,0,0.1,0c0,0,0-0.1,0-0.1c0,0-0.1,0-0.1,0L13.2,1c0,0,0,0,0.1-0.1
			c0.1-0.2,0.1-0.4-0.1-0.6c-0.2-0.1-0.4-0.1-0.5,0l-0.1-0.1c0,0,0-0.1,0-0.1c0,0-0.1,0-0.1,0C12.3,0.2,12.3,0.3,12.3,0.3z"/>
		<path id="XMLID_490_" class="st0" d="M7.8,10.3c-0.2,0.3-0.1,0.7,0.2,0.8c0.1,0.1,0.2,0.1,0.4,0.1l0.1,0.4c-0.1,0-0.1,0.1-0.1,0.2
			c0,0.1,0.1,0.1,0.2,0.1c0.1,0,0.1-0.1,0.1-0.2c0-0.1-0.1-0.1-0.1-0.1l-0.1-0.4c0.1,0,0.3-0.1,0.3-0.2c0.2-0.3,0.1-0.7-0.2-0.8
			C8.5,10,8.3,10,8.2,10l0-0.3c0.1,0,0.1-0.1,0.1-0.2c0,0,0,0,0,0c0.1,0,0.2,0,0.3-0.1L9,9.7c0,0.1-0.1,0.2-0.1,0.4
			c0,0.3,0.1,0.6,0.3,0.8l-0.3,0.4c-0.1,0-0.3,0-0.3,0.1c-0.1,0.1,0,0.3,0.1,0.4c0.1,0.1,0.3,0,0.4-0.1c0-0.1,0-0.2,0-0.3L9.4,11
			c0.2,0.1,0.4,0.2,0.6,0.2c0.4,0,0.8-0.2,1-0.6l0.5,0.2c0,0.1,0,0.2,0.1,0.2c0.1,0.1,0.3,0.1,0.4-0.1c0.1-0.1,0.1-0.3-0.1-0.4
			c-0.1-0.1-0.3-0.1-0.3,0l-0.5-0.2c0-0.1,0.1-0.2,0.1-0.4c0-0.3-0.1-0.6-0.3-0.8l0.3-0.4c0.1,0,0.3,0,0.3-0.1c0-0.1,0-0.2,0-0.3
			c0,0,0,0,0.1,0l0.1,0.4c-0.1,0-0.2,0.1-0.3,0.3c-0.2,0.3-0.1,0.7,0.2,0.8c0.1,0.1,0.3,0.1,0.4,0.1l0.1,0.3c-0.1,0-0.1,0.1-0.1,0.2
			c0,0.1,0.1,0.1,0.2,0.1c0.1,0,0.1-0.1,0.1-0.2c0,0-0.1-0.1-0.1-0.1L12,9.9c0.1,0,0.2-0.1,0.3-0.3c0.2-0.3,0.1-0.7-0.2-0.8
			c-0.1-0.1-0.2-0.1-0.4-0.1l-0.1-0.4c0.1,0,0.1-0.1,0.1-0.2c0-0.1-0.1-0.1-0.2-0.1c-0.1,0-0.1,0.1-0.1,0.2c0,0,0,0,0,0
			c0,0,0,0-0.1,0c-0.1-0.1-0.3,0-0.4,0.1c0,0.1,0,0.2,0,0.3l-0.3,0.4C10.4,9,10.2,8.9,10,8.9c-0.4,0-0.8,0.2-1,0.6L8.6,9.2
			c0-0.1,0-0.2-0.1-0.2C8.3,8.9,8.2,9,8.1,9.1C8,9.2,8,9.3,8.1,9.4c0,0,0,0-0.1,0c-0.1,0-0.1,0.1-0.1,0.2C7.9,9.7,8,9.7,8,9.8l0,0.3
			C8,10.1,7.8,10.1,7.8,10.3z"/>
		<path id="XMLID_489_" class="st0" d="M1.7,9.2c-0.2,0.3-0.2,0.7,0,0.9l-0.2,0.2c-0.1,0-0.2,0-0.2,0.1c-0.1,0.1,0,0.2,0,0.3
			c0.1,0.1,0.2,0,0.3,0c0,0,0-0.1,0-0.2l0.2-0.1c0,0,0.1,0.1,0.1,0.1c0.4,0.3,0.9,0.2,1.1-0.2c0.2-0.3,0.2-0.7-0.1-1L3.2,9
			c0.1,0,0.2,0,0.2-0.1c0.1-0.1,0-0.2,0-0.3c-0.1-0.1-0.2,0-0.3,0c0,0.1,0,0.1,0,0.2L2.9,9.1c0,0,0,0,0,0C2.5,8.8,2,8.9,1.7,9.2z"/>
		<path id="XMLID_488_" class="st0" d="M3.6,11.5l-0.1,0.2c-0.1,0-0.2,0-0.2,0.1c0,0.1,0,0.2,0.1,0.3c0.1,0,0.2,0,0.3-0.1
			c0-0.1,0-0.1,0-0.2l0.1-0.2c0.4,0.2,0.9,0.1,1.2-0.3c0.3-0.4,0.2-1-0.2-1.3c0,0,0,0,0,0l0.1-0.2c0.1,0,0.2,0,0.2-0.1
			c0-0.1,0-0.2-0.1-0.3c-0.1,0-0.2,0-0.3,0.1c0,0.1,0,0.1,0,0.2L4.5,9.8c-0.4-0.2-0.9,0-1.2,0.3C3.1,10.6,3.2,11.2,3.6,11.5z"/>
		<path id="XMLID_487_" class="st0" d="M6.2,12.1c-0.1,0-0.1,0.1-0.1,0.2c0,0.1,0.1,0.2,0.2,0.2c0.1,0,0.2-0.1,0.2-0.2
			c0-0.1,0-0.1-0.1-0.1l0-0.3c0.2,0,0.5-0.1,0.6-0.3c0.3-0.4,0.2-0.9-0.2-1.1c-0.1-0.1-0.2-0.1-0.4-0.1l0-0.2c0.1,0,0.1-0.1,0.1-0.2
			c0-0.1-0.1-0.2-0.2-0.2c-0.1,0-0.2,0.1-0.2,0.2c0,0.1,0,0.1,0.1,0.1l0,0.2c-0.2,0-0.5,0.1-0.6,0.3c-0.3,0.4-0.2,0.9,0.2,1.1
			c0.1,0.1,0.2,0.1,0.4,0.1L6.2,12.1z"/>
		<path id="XMLID_486_" class="st0" d="M0.7,9.2c0.1,0,0.1,0,0.2,0c0,0,0-0.1,0-0.1L1,8.9c0,0,0,0,0,0C1.3,9.1,1.6,9,1.7,8.8
			c0.1-0.2,0.1-0.4,0-0.6L1.8,8C1.9,8.1,2,8,2,8c0-0.1,0-0.1,0-0.2c-0.1,0-0.1,0-0.2,0c0,0,0,0.1,0,0.1L1.6,8.1c0,0,0,0,0,0
			C1.4,7.9,1.1,8,0.9,8.2c-0.1,0.2-0.1,0.4,0,0.6L0.8,8.9c-0.1,0-0.1,0-0.1,0C0.6,9,0.6,9.1,0.7,9.2z"/>
		<path id="XMLID_485_" class="st0" d="M0.5,7.7C0.6,7.8,0.9,7.8,1,7.6c0.1-0.1,0.1-0.3,0-0.4L1.1,7c0,0,0.1,0,0.1,0
			c0,0,0-0.1,0-0.1c0,0-0.1,0-0.1,0c0,0,0,0.1,0,0.1L1,7.1c0,0,0,0-0.1-0.1C0.7,6.9,0.5,6.9,0.3,7.1C0.2,7.3,0.3,7.5,0.5,7.7
			L0.3,7.8c0,0-0.1,0-0.1,0c0,0,0,0.1,0,0.1c0,0,0.1,0,0.1,0c0,0,0-0.1,0-0.1L0.5,7.7z"/>
		<path id="XMLID_484_" class="st0" d="M11.6,16.4l0.2,0.1c0,0.1,0.1,0.2,0.1,0.2c0.1,0,0.2,0,0.3-0.1c0-0.1,0-0.2-0.1-0.3
			c-0.1,0-0.1,0-0.2,0l-0.2-0.1c0.2-0.4,0-0.9-0.4-1.2c-0.4-0.3-1-0.2-1.3,0.3c0,0,0,0,0,0l-0.2-0.1c0-0.1-0.1-0.2-0.1-0.2
			c-0.1,0-0.2,0-0.3,0.1c0,0.1,0,0.2,0.1,0.3c0.1,0,0.1,0,0.2,0l0.2,0.1c-0.2,0.4,0,0.9,0.4,1.2C10.7,17,11.3,16.9,11.6,16.4z"/>
		<path id="XMLID_483_" class="st0" d="M10.6,18.7c0.1,0.1,0.2,0,0.3-0.1s0-0.2-0.1-0.3c-0.1,0-0.1,0-0.2,0l-0.2-0.2
			c0,0,0.1-0.1,0.1-0.1c0.2-0.4,0.1-0.9-0.2-1.1c-0.3-0.2-0.7-0.2-1,0.1l-0.2-0.2c0-0.1,0-0.2-0.1-0.2c-0.1-0.1-0.2,0-0.3,0.1
			s0,0.2,0.1,0.3c0.1,0,0.1,0,0.2,0l0.2,0.2c0,0,0,0,0,0c-0.2,0.4-0.1,0.9,0.2,1.1c0.3,0.2,0.7,0.2,0.9,0l0.2,0.2
			C10.5,18.6,10.5,18.7,10.6,18.7z"/>
		<path id="XMLID_482_" class="st0" d="M12.3,13.9c0.1,0,0.2-0.1,0.1-0.2c0-0.1-0.1-0.2-0.2-0.1c-0.1,0-0.1,0.1-0.1,0.1l-0.3,0
			c0-0.2-0.1-0.5-0.4-0.6c-0.4-0.2-0.9-0.1-1.1,0.2c-0.1,0.1-0.1,0.2-0.1,0.4l-0.2,0c0-0.1-0.1-0.1-0.2-0.1c-0.1,0-0.2,0.1-0.1,0.2
			c0,0.1,0.1,0.2,0.2,0.1c0.1,0,0.1-0.1,0.1-0.1l0.2,0c0,0.2,0.1,0.5,0.4,0.6c0.4,0.2,0.9,0.1,1.1-0.2c0.1-0.1,0.1-0.2,0.1-0.4
			l0.3,0C12.2,13.9,12.2,13.9,12.3,13.9z"/>
		<path id="XMLID_481_" class="st0" d="M11.8,11.7c0.1,0,0.1-0.1,0.1-0.2c0-0.1-0.1-0.1-0.2-0.1c0,0-0.1,0.1-0.1,0.1l-0.4,0.1
			c0-0.1-0.1-0.3-0.2-0.3c-0.3-0.2-0.7-0.1-0.8,0.2c-0.1,0.1-0.1,0.3-0.1,0.4l-0.3,0.1c0-0.1-0.1-0.1-0.2-0.1
			c-0.1,0-0.1,0.1-0.1,0.2c0,0.1,0.1,0.1,0.2,0.1c0,0,0.1-0.1,0.1-0.1l0.3-0.1c0,0.1,0.1,0.2,0.2,0.3c0.3,0.2,0.7,0.1,0.8-0.2
			c0.1-0.1,0.1-0.2,0.1-0.4l0.4-0.1C11.7,11.7,11.7,11.8,11.8,11.7z"/>
		<path id="XMLID_480_" class="st0" d="M9.2,19.4c0.1,0,0.1,0,0.2,0c0-0.1,0-0.1,0-0.2c0,0-0.1,0-0.1,0l-0.1-0.1c0,0,0,0,0,0
			c0.2-0.2,0.1-0.5-0.1-0.7c-0.2-0.1-0.4-0.1-0.6,0l-0.1-0.1c0-0.1,0-0.1,0-0.1c-0.1,0-0.1,0-0.2,0c0,0.1,0,0.1,0,0.2
			c0,0,0.1,0,0.1,0l0.1,0.1c0,0,0,0,0,0c-0.2,0.2-0.1,0.5,0.1,0.7c0.2,0.1,0.4,0.1,0.6,0l0.1,0.1C9.1,19.4,9.1,19.4,9.2,19.4z"/>
		<path id="XMLID_479_" class="st0" d="M8,20c0,0,0.1,0,0.1,0c0,0,0-0.1,0-0.1c0,0-0.1,0-0.1,0l-0.1-0.1C8,19.5,8,19.2,7.8,19.1
			c-0.1-0.1-0.3-0.1-0.4,0L7.2,19c0,0,0-0.1,0-0.1c0,0-0.1,0-0.1,0c0,0,0,0.1,0,0.1c0,0,0.1,0,0.1,0l0.1,0.1c0,0,0,0-0.1,0.1
			c-0.1,0.2-0.1,0.4,0.1,0.6c0.2,0.1,0.4,0.1,0.5-0.1L8,19.9C8,19.9,8,20,8,20z"/>
		<path id="XMLID_478_" class="st0" d="M14.1,8.3c-0.1-0.1-0.2-0.1-0.4-0.1l0-0.3c0.1,0,0.1-0.1,0.1-0.2c0-0.1-0.1-0.2-0.2-0.1
			c-0.1,0-0.2,0.1-0.1,0.2c0,0.1,0.1,0.1,0.1,0.1l0,0.3c-0.2,0-0.5,0.2-0.6,0.4c-0.2,0.4-0.1,0.9,0.3,1.1c0.1,0.1,0.2,0.1,0.4,0.1
			l0,0.2c-0.1,0-0.1,0.1-0.1,0.2c0,0.1,0.1,0.2,0.2,0.1c0.1,0,0.2-0.1,0.1-0.2c0-0.1-0.1-0.1-0.1-0.1l0-0.2c0.2,0,0.5-0.2,0.6-0.4
			C14.6,9,14.5,8.5,14.1,8.3z"/>
		<path id="XMLID_477_" class="st0" d="M17,9.6c-0.2,0.3-0.2,0.7,0.1,1l-0.2,0.2c-0.1,0-0.2,0-0.2,0.1c-0.1,0.1,0,0.2,0.1,0.3
			c0.1,0.1,0.2,0,0.3-0.1c0-0.1,0-0.1,0-0.2l0.2-0.2c0,0,0,0,0,0c0.4,0.2,0.9,0.1,1.1-0.3c0.2-0.3,0.2-0.7,0-0.9l0.2-0.2
			c0.1,0,0.2,0,0.2-0.1c0.1-0.1,0-0.2-0.1-0.3c-0.1-0.1-0.2,0-0.3,0.1c0,0.1,0,0.1,0,0.2l-0.1,0.2c0,0-0.1,0-0.1-0.1
			C17.7,9.1,17.2,9.2,17,9.6z"/>
		<path id="XMLID_476_" class="st0" d="M18.3,10.9c-0.1,0.2-0.1,0.4,0,0.6l-0.1,0.1c-0.1,0-0.1,0-0.1,0.1c0,0.1,0,0.1,0,0.2
			c0.1,0,0.1,0,0.2,0c0,0,0-0.1,0-0.1l0.1-0.1c0,0,0,0,0,0c0.2,0.1,0.5,0.1,0.7-0.2c0.1-0.2,0.1-0.4,0-0.6l0.1-0.1
			c0.1,0,0.1,0,0.1-0.1c0-0.1,0-0.1,0-0.2c-0.1,0-0.1,0-0.2,0c0,0,0,0.1,0,0.1l-0.1,0.1c0,0,0,0,0,0C18.8,10.6,18.5,10.7,18.3,10.9z
			"/>
		<path id="XMLID_475_" class="st0" d="M19.1,12.1c-0.1,0.1-0.1,0.3,0,0.4L19,12.6c0,0-0.1,0-0.1,0c0,0,0,0.1,0,0.1c0,0,0.1,0,0.1,0
			c0,0,0-0.1,0-0.1l0.1-0.1c0,0,0,0,0.1,0c0.2,0.1,0.4,0.1,0.6-0.1c0.1-0.2,0.1-0.4-0.1-0.5l0.1-0.1c0,0,0.1,0,0.1,0
			c0,0,0-0.1,0-0.1c0,0-0.1,0-0.1,0c0,0,0,0.1,0,0.1l-0.1,0.2C19.5,11.8,19.2,11.9,19.1,12.1z"/>
		<path id="XMLID_474_" class="st0" d="M16.3,8l-0.1,0.2c-0.4-0.2-0.9,0-1.2,0.4c-0.3,0.4-0.1,1,0.3,1.3c0,0,0,0,0,0l-0.1,0.2
			c-0.1,0-0.2,0.1-0.2,0.1c0,0.1,0,0.2,0.1,0.2c0.1,0,0.2,0,0.2-0.1c0-0.1,0-0.1,0-0.2l0.1-0.2c0.4,0.2,0.9,0,1.2-0.4
			c0.3-0.4,0.1-1-0.3-1.3l0.1-0.2c0.1,0,0.2-0.1,0.2-0.1c0-0.1,0-0.2-0.1-0.2c-0.1,0-0.2,0-0.2,0.1C16.2,7.9,16.2,8,16.3,8z"/>
		<path id="XMLID_473_" class="st0" d="M15.4,5.5l0,0.3c-0.1,0-0.1,0.1-0.1,0.2c0,0.1,0.1,0.2,0.2,0.1c0.1,0,0.2-0.1,0.1-0.2
			c0-0.1-0.1-0.1-0.1-0.1l0-0.3c0,0,0,0,0,0c0.4-0.1,0.7-0.5,0.6-1c-0.1-0.3-0.4-0.6-0.7-0.6l0-0.2c0.1,0,0.1-0.1,0.1-0.2
			c0-0.1-0.1-0.2-0.2-0.1c-0.1,0-0.2,0.1-0.1,0.2c0,0.1,0.1,0.1,0.1,0.1l0,0.2c0,0-0.1,0-0.1,0c-0.4,0.1-0.7,0.5-0.6,1
			C14.8,5.2,15.1,5.4,15.4,5.5z"/>
		<path id="XMLID_472_" class="st0" d="M17,5.2l0,0.2c0,0-0.1,0.1-0.1,0.1c0,0.1,0.1,0.1,0.1,0.1c0.1,0,0.1-0.1,0.1-0.1
			c0,0,0-0.1-0.1-0.1l0-0.2c0,0,0,0,0,0c0.3-0.1,0.4-0.3,0.4-0.6c0-0.2-0.2-0.4-0.5-0.4l0-0.2c0,0,0.1-0.1,0.1-0.1
			c0-0.1-0.1-0.1-0.1-0.1c-0.1,0-0.1,0.1-0.1,0.1C16.9,4,17,4,17,4l0,0.2c0,0,0,0,0,0c-0.3,0.1-0.4,0.3-0.4,0.6
			C16.6,5,16.8,5.2,17,5.2z"/>
		<path id="XMLID_471_" class="st0" d="M18.3,5.4l0,0.1c0,0-0.1,0.1-0.1,0.1c0,0.1,0.1,0.1,0.1,0.1c0.1,0,0.1-0.1,0.1-0.1
			c0,0,0-0.1-0.1-0.1L18.3,5.4c0.1,0,0.1,0,0.2,0c0.2,0,0.4-0.3,0.3-0.5c0-0.2-0.2-0.3-0.4-0.3l0-0.2c0,0,0.1-0.1,0.1-0.1
			c0-0.1-0.1-0.1-0.1-0.1c-0.1,0-0.1,0.1-0.1,0.1c0,0,0,0.1,0.1,0.1l0,0.2c-0.2,0.1-0.3,0.3-0.3,0.5C18,5.3,18.1,5.4,18.3,5.4z"/>
		<path id="XMLID_470_" class="st0" d="M12.6,7.7c0.1,0.1,0.2,0,0.3-0.1c0.1-0.1,0-0.2-0.1-0.3c-0.1,0-0.1,0-0.2,0l-0.1-0.1
			c0.1-0.2,0.2-0.4,0.2-0.7c-0.1-0.4-0.5-0.7-1-0.6c-0.1,0-0.3,0.1-0.4,0.2l-0.2-0.2c0-0.1,0-0.2-0.1-0.2c-0.1-0.1-0.2,0-0.3,0.1
			c-0.1,0.1,0,0.2,0.1,0.3C10.9,6,11,6,11,6l0.2,0.2c-0.1,0.2-0.2,0.4-0.2,0.7c0.1,0.4,0.5,0.7,1,0.6c0.1,0,0.3-0.1,0.4-0.2l0.1,0.1
			C12.5,7.5,12.6,7.6,12.6,7.7z"/>
		<path id="XMLID_469_" class="st0" d="M13.3,4.2c0.1-0.1,0.1-0.2,0-0.2c-0.1-0.1-0.2-0.1-0.3-0.1c-0.1,0.1-0.1,0.2-0.1,0.3
			c0,0.1,0.1,0.1,0.2,0.1l0.1,0.2c-0.4,0.2-0.7,0.6-0.6,1.1c0.1,0.5,0.6,0.8,1.1,0.7c0,0,0,0,0,0l0.1,0.2c-0.1,0.1-0.1,0.2,0,0.2
			c0.1,0.1,0.2,0.1,0.3,0.1c0.1-0.1,0.1-0.2,0.1-0.3c0-0.1-0.1-0.1-0.2-0.1l-0.1-0.2c0.4-0.2,0.6-0.6,0.6-1.1
			c-0.1-0.5-0.6-0.8-1.1-0.7L13.3,4.2z"/>
		<path id="XMLID_468_" class="st0" d="M3.7,4.4c0.1,0,0.1,0,0.1-0.1l0.2,0c0,0,0,0.1,0,0.1C4.2,4.9,4.6,5.2,5,5.1
			c0.4-0.1,0.6-0.4,0.7-0.7l0.3,0c0,0.1,0.1,0.1,0.2,0.1c0.1,0,0.2-0.1,0.2-0.2c0-0.1-0.1-0.2-0.2-0.2C6.1,4.1,6,4.2,6,4.2l-0.3,0
			c0,0,0,0,0,0C5.6,3.7,5.2,3.4,4.7,3.5C4.4,3.6,4.1,3.9,4.1,4.2l-0.2,0c0-0.1-0.1-0.1-0.2-0.1c-0.1,0-0.2,0.1-0.2,0.2
			C3.5,4.4,3.6,4.5,3.7,4.4z"/>
		<path id="XMLID_467_" class="st0" d="M7.3,7.4C7.1,7.2,6.9,7.2,6.6,7.2C6.2,7.3,5.9,7.7,6,8.2c0,0.1,0.1,0.3,0.2,0.4L5.9,8.7
			c-0.1,0-0.2,0-0.2,0.1c-0.1,0.1,0,0.2,0,0.3c0.1,0.1,0.2,0,0.3,0C6,9,6,8.9,6,8.8l0.2-0.2c0.2,0.2,0.4,0.2,0.7,0.2
			c0.4-0.1,0.7-0.5,0.7-0.9c0-0.1-0.1-0.3-0.2-0.4l0.1-0.1c0.1,0,0.2,0,0.2-0.1c0.1-0.1,0-0.2,0-0.3C7.7,7,7.5,7,7.5,7.1
			c0,0.1,0,0.1,0,0.2L7.3,7.4z"/>
		<path id="XMLID_466_" class="st0" d="M6.3,6C6.2,5.6,5.7,5.3,5.3,5.4C4.8,5.5,4.4,6,4.5,6.5l-0.2,0c-0.1-0.1-0.2-0.1-0.2,0
			C4,6.5,3.9,6.6,4,6.7c0,0.1,0.2,0.1,0.3,0.1c0.1,0,0.1-0.1,0.1-0.1l0.2,0c0.2,0.4,0.6,0.7,1.1,0.6c0.5-0.1,0.9-0.6,0.8-1.1
			c0,0,0,0,0,0l0.2-0.1c0.1,0.1,0.2,0.1,0.2,0C6.9,6.1,7,6,6.9,5.9c0-0.1-0.2-0.1-0.3-0.1c-0.1,0-0.1,0.1-0.1,0.1L6.3,6z"/>
		<path id="XMLID_465_" class="st0" d="M4.2,2.8C4.3,2.8,4.3,2.8,4.2,2.8l0.3-0.1c0,0,0,0,0,0c0,0.3,0.3,0.5,0.6,0.4
			c0.2,0,0.4-0.2,0.4-0.4l0.2,0c0,0,0.1,0.1,0.1,0.1c0.1,0,0.1-0.1,0.1-0.1c0-0.1-0.1-0.1-0.1-0.1c0,0-0.1,0-0.1,0.1l-0.2,0
			c0,0,0,0,0,0c0-0.3-0.3-0.5-0.6-0.4c-0.2,0-0.4,0.2-0.4,0.4l-0.2,0c0,0-0.1-0.1-0.1-0.1c-0.1,0-0.1,0.1-0.1,0.1
			C4.1,2.8,4.2,2.8,4.2,2.8z"/>
		<path id="XMLID_464_" class="st0" d="M4.7,1.6C4.7,1.6,4.8,1.6,4.7,1.6l0.3,0c0,0.2,0.2,0.4,0.5,0.3c0.2,0,0.3-0.2,0.3-0.3l0.1,0
			c0,0,0.1,0.1,0.1,0.1c0.1,0,0.1-0.1,0.1-0.1C6.1,1.5,6,1.4,6,1.4c0,0-0.1,0-0.1,0.1l-0.1,0c0,0,0-0.1,0-0.1c0-0.2-0.2-0.4-0.5-0.3
			C5.1,1.1,5,1.3,5,1.5l-0.2,0c0,0-0.1-0.1-0.1-0.1c-0.1,0-0.1,0.1-0.1,0.1C4.6,1.6,4.6,1.6,4.7,1.6z"/>
		<path id="XMLID_463_" class="st0" d="M5.3,16.7c0.4-0.1,0.7-0.6,0.5-1C5.7,15.3,5.4,15,5,15.1l0-0.3c0.1,0,0.1-0.1,0.1-0.2
			c0-0.1-0.1-0.2-0.2-0.1c-0.1,0-0.2,0.1-0.1,0.2c0,0.1,0.1,0.1,0.1,0.1l0,0.3c0,0,0,0,0,0c-0.4,0.1-0.7,0.6-0.5,1
			c0.1,0.3,0.4,0.6,0.7,0.6l0,0.2C5,17,5,17.1,5,17.1c0,0.1,0.1,0.2,0.2,0.1c0.1,0,0.2-0.1,0.1-0.2c0-0.1-0.1-0.1-0.1-0.1l0-0.2
			C5.2,16.7,5.3,16.7,5.3,16.7z"/>
		<path id="XMLID_462_" class="st0" d="M7.2,16l0.1,0.2c-0.1,0.1-0.1,0.2,0,0.2c0.1,0.1,0.2,0.1,0.3,0.1c0.1-0.1,0.1-0.2,0.1-0.3
			c0-0.1-0.1-0.1-0.2-0.1l-0.1-0.2c0.4-0.2,0.6-0.7,0.5-1.1c-0.2-0.5-0.7-0.8-1.2-0.6c0,0,0,0,0,0L6.6,14c0.1-0.1,0.1-0.2,0-0.2
			c-0.1-0.1-0.2-0.1-0.3-0.1c-0.1,0.1-0.1,0.2-0.1,0.3C6.3,14,6.4,14,6.4,14l0.1,0.2c-0.4,0.2-0.6,0.7-0.5,1.1
			C6.2,15.9,6.7,16.2,7.2,16z"/>
		<path id="XMLID_461_" class="st0" d="M3.6,16.5C3.9,16.4,4,16.1,4,15.8c-0.1-0.2-0.3-0.4-0.5-0.4l0-0.2c0,0,0.1-0.1,0.1-0.1
			c0-0.1-0.1-0.1-0.2-0.1c-0.1,0-0.1,0.1-0.1,0.2c0,0,0,0.1,0.1,0.1l0,0.2c0,0,0,0,0,0c-0.3,0.1-0.4,0.4-0.3,0.6
			c0.1,0.2,0.3,0.4,0.5,0.4l0,0.2c0,0-0.1,0.1-0.1,0.1c0,0.1,0.1,0.1,0.2,0.1c0.1,0,0.1-0.1,0.1-0.2c0,0,0-0.1-0.1-0.1L3.6,16.5
			C3.6,16.5,3.6,16.5,3.6,16.5z"/>
		<path id="XMLID_460_" class="st0" d="M2.6,15.7c0-0.2-0.2-0.3-0.3-0.3l0-0.1c0,0,0.1-0.1,0-0.1c0-0.1-0.1-0.1-0.1-0.1
			c-0.1,0-0.1,0.1-0.1,0.1c0,0,0,0.1,0.1,0.1l0,0.1c0,0-0.1,0-0.1,0c-0.2,0.1-0.3,0.3-0.3,0.5c0.1,0.2,0.2,0.3,0.4,0.3l0,0.2
			c0,0-0.1,0.1,0,0.1c0,0.1,0.1,0.1,0.1,0.1c0.1,0,0.1-0.1,0.1-0.1c0,0,0-0.1-0.1-0.1l0-0.2C2.5,16.1,2.6,15.9,2.6,15.7z"/>
		<path id="XMLID_459_" class="st0" d="M7.4,12.7c0,0.1,0,0.2,0.1,0.3c0.1,0,0.1,0,0.2,0l0.2,0.1c-0.1,0.2-0.2,0.5-0.1,0.7
			c0.1,0.4,0.6,0.7,1,0.5c0.1,0,0.2-0.1,0.3-0.2l0.2,0.2c0,0.1,0,0.2,0.1,0.2c0.1,0,0.2,0,0.3-0.1c0-0.1,0-0.2-0.1-0.3
			c-0.1,0-0.1,0-0.2,0L9.1,14c0.1-0.2,0.2-0.5,0.1-0.7c-0.1-0.4-0.6-0.7-1-0.5c-0.1,0-0.2,0.1-0.3,0.2l-0.2-0.1c0-0.1,0-0.2-0.1-0.2
			C7.5,12.6,7.4,12.6,7.4,12.7z"/>
		<path id="XMLID_458_" class="st0" d="M13.7,12.4c0.4-0.1,0.7-0.6,0.5-1c0-0.1-0.1-0.2-0.2-0.3l0.2-0.2c0.1,0,0.2,0,0.2-0.1
			c0-0.1,0-0.2-0.1-0.3c-0.1,0-0.2,0-0.3,0.1c0,0.1,0,0.1,0,0.2l-0.2,0.2c-0.2-0.1-0.4-0.2-0.7-0.1c-0.4,0.1-0.7,0.6-0.5,1
			c0,0.1,0.1,0.2,0.2,0.3l-0.1,0.2c-0.1,0-0.2,0-0.2,0.1c0,0.1,0,0.2,0.1,0.3c0.1,0,0.2,0,0.3-0.1c0-0.1,0-0.1,0-0.2l0.1-0.2
			C13.2,12.4,13.5,12.5,13.7,12.4z"/>
		<path id="XMLID_457_" class="st0" d="M17.1,15.1c0.1,0,0.2-0.1,0.1-0.2c0-0.1-0.1-0.2-0.2-0.1c-0.1,0-0.1,0.1-0.1,0.1l-0.2,0
			c0,0,0-0.1,0-0.1c-0.1-0.4-0.6-0.7-1-0.5c-0.4,0.1-0.6,0.5-0.6,0.8l-0.3,0c0-0.1-0.1-0.1-0.2-0.1c-0.1,0-0.2,0.1-0.1,0.2
			c0,0.1,0.1,0.2,0.2,0.1c0.1,0,0.1-0.1,0.1-0.1l0.3,0c0,0,0,0,0,0c0.1,0.4,0.6,0.7,1,0.5c0.3-0.1,0.6-0.4,0.6-0.7l0.2,0
			C16.9,15.1,17,15.1,17.1,15.1z"/>
		<path id="XMLID_456_" class="st0" d="M13.9,13.8c0.1,0,0.1-0.1,0.1-0.2l0.2-0.1c0.2,0.4,0.7,0.6,1.1,0.5c0.5-0.2,0.8-0.7,0.6-1.2
			l0.2-0.1c0.1,0.1,0.2,0.1,0.2,0c0.1-0.1,0.1-0.2,0.1-0.3c-0.1-0.1-0.2-0.1-0.3-0.1c-0.1,0-0.1,0.1-0.1,0.2l-0.2,0.1
			c-0.2-0.4-0.7-0.6-1.1-0.5c-0.5,0.2-0.8,0.7-0.6,1.2c0,0,0,0,0,0l-0.2,0.1c-0.1-0.1-0.2-0.1-0.2,0c-0.1,0.1-0.1,0.2-0.1,0.3
			C13.7,13.9,13.8,13.9,13.9,13.8z"/>
		<path id="XMLID_455_" class="st0" d="M16.7,16.7c0.1,0,0.1-0.1,0.1-0.2c0-0.1-0.1-0.1-0.2-0.1c0,0-0.1,0-0.1,0.1l-0.2,0
			c0,0,0,0,0,0c-0.1-0.3-0.4-0.4-0.6-0.3c-0.2,0.1-0.4,0.3-0.4,0.5l-0.2,0c0,0-0.1-0.1-0.1-0.1c-0.1,0-0.1,0.1-0.1,0.2
			c0,0.1,0.1,0.1,0.2,0.1c0,0,0.1,0,0.1-0.1l0.2,0c0,0,0,0,0,0c0.1,0.3,0.4,0.4,0.6,0.3c0.2-0.1,0.4-0.3,0.4-0.5l0.2,0
			C16.6,16.7,16.7,16.7,16.7,16.7z"/>
		<path id="XMLID_454_" class="st0" d="M16.4,17.9c0.1,0,0.1-0.1,0.1-0.1c0-0.1-0.1-0.1-0.1-0.1c0,0-0.1,0-0.1,0.1l-0.2,0
			c-0.1-0.2-0.3-0.3-0.5-0.3c-0.2,0-0.3,0.2-0.3,0.3l-0.1,0c0,0-0.1-0.1-0.1,0C15,17.9,15,17.9,15,18c0,0.1,0.1,0.1,0.1,0.1
			c0,0,0.1,0,0.1-0.1l0.1,0c0,0,0,0.1,0,0.1c0.1,0.2,0.3,0.3,0.5,0.3c0.2-0.1,0.3-0.2,0.3-0.4l0.2,0C16.3,17.9,16.4,17.9,16.4,17.9z
			"/>
	</g>
	<g id="XMLID_409_">
		<path id="XMLID_452_" class="st0" d="M9.5,1.5c0,0,0.1,0,0.2,0l0.1,0.2c0,0-0.1,0.1-0.1,0.1C9.5,2.1,9.5,2.6,9.9,2.9
			c0.3,0.2,0.7,0.2,1,0l0.2,0.2c0,0.1,0,0.2,0.1,0.2c0.1,0.1,0.2,0,0.3,0c0.1-0.1,0-0.2,0-0.3c0,0-0.1,0-0.2,0L11,2.7c0,0,0,0,0,0
			c0.3-0.4,0.2-0.9-0.2-1.1c-0.3-0.2-0.7-0.2-0.9,0L9.8,1.4c0-0.1,0-0.2-0.1-0.2c-0.1-0.1-0.2,0-0.3,0C9.4,1.3,9.4,1.4,9.5,1.5z"/>
		<path id="XMLID_451_" class="st0" d="M7.8,6.3c0.1,0,0.1,0,0.1-0.1l0.3,0c0,0.2,0.1,0.5,0.3,0.6C9,7.1,9.5,7,9.7,6.6
			c0.1-0.1,0.1-0.2,0.1-0.4l0.2,0c0,0.1,0.1,0.1,0.2,0.1c0.1,0,0.2-0.1,0.2-0.2S10.3,6,10.2,6c-0.1,0-0.1,0-0.1,0.1l-0.2,0
			c0-0.2-0.1-0.5-0.3-0.6C9.2,5.2,8.7,5.3,8.4,5.7C8.3,5.8,8.3,5.9,8.3,6L8,6c0-0.1-0.1-0.1-0.2-0.1C7.7,5.9,7.6,6,7.6,6.1
			C7.6,6.2,7.7,6.3,7.8,6.3z"/>
		<path id="XMLID_450_" class="st0" d="M8.2,8.1c-0.1,0-0.1,0.1-0.1,0.2c0,0.1,0.1,0.1,0.2,0.1c0.1,0,0.1-0.1,0.1-0.1l0.4-0.1
			c0,0.1,0.1,0.3,0.2,0.3c0.3,0.2,0.7,0.1,0.8-0.1C9.9,8.3,10,8.2,10,8.1l0.3,0c0,0.1,0.1,0.1,0.2,0.1c0.1,0,0.1-0.1,0.1-0.2
			c0-0.1-0.1-0.1-0.2-0.1c-0.1,0-0.1,0.1-0.1,0.1l-0.3,0c0-0.1-0.1-0.2-0.2-0.3C9.4,7.4,9.1,7.5,8.9,7.7C8.8,7.8,8.7,8,8.7,8.1
			L8.4,8.2C8.3,8.1,8.3,8.1,8.2,8.1z"/>
		<path id="XMLID_449_" class="st0" d="M8.2,3.5c0.1,0,0.1,0,0.2,0l0.1,0.1C8.3,4,8.4,4.5,8.8,4.8c0.4,0.3,1,0.2,1.3-0.2
			c0,0,0,0,0,0l0.2,0.1c0,0.1,0,0.2,0.1,0.2c0.1,0,0.2,0,0.3-0.1c0-0.1,0-0.2-0.1-0.3c-0.1,0-0.1,0-0.2,0l-0.2-0.1
			c0.2-0.4,0.1-0.9-0.3-1.2C9.5,2.9,8.9,3,8.6,3.4L8.4,3.3c0-0.1,0-0.2-0.1-0.2c-0.1,0-0.2,0-0.3,0.1C8,3.4,8.1,3.5,8.2,3.5z"/>
		<path id="XMLID_448_" class="st0" d="M11,0.7c0,0,0.1,0,0.1,0l0.1,0.1c0,0,0,0,0,0c-0.2,0.2-0.1,0.5,0.1,0.7
			c0.2,0.1,0.4,0.1,0.6,0l0.1,0.1c0,0.1,0,0.1,0,0.1c0.1,0,0.1,0,0.2,0c0-0.1,0-0.1,0-0.2c0,0-0.1,0-0.1,0L12,1.5c0,0,0,0,0,0
			c0.2-0.2,0.1-0.5-0.1-0.7c-0.2-0.1-0.4-0.1-0.6,0l-0.1-0.1c0-0.1,0-0.1,0-0.1c-0.1,0-0.1,0-0.2,0C10.9,0.6,10.9,0.7,11,0.7z"/>
		<path id="XMLID_447_" class="st0" d="M12.2,0.2C12.2,0.2,12.3,0.2,12.2,0.2l0.2,0.2c-0.1,0.2-0.1,0.4,0.1,0.6
			C12.7,1,12.8,1,13,0.9L13.1,1c0,0,0,0.1,0,0.1c0,0,0.1,0,0.1,0c0,0,0-0.1,0-0.1c0,0-0.1,0-0.1,0L13,0.9c0,0,0,0,0.1-0.1
			c0.1-0.2,0.1-0.4-0.1-0.6c-0.2-0.1-0.4-0.1-0.5,0l-0.1-0.1c0,0,0-0.1,0-0.1c0,0-0.1,0-0.1,0C12.2,0.1,12.2,0.1,12.2,0.2z"/>
		<path id="XMLID_446_" class="st0" d="M7.6,10.1c-0.2,0.3-0.1,0.7,0.2,0.8C7.9,11,8,11.1,8.2,11.1l0.1,0.4c-0.1,0-0.1,0.1-0.1,0.2
			c0,0.1,0.1,0.1,0.2,0.1c0.1,0,0.1-0.1,0.1-0.2c0-0.1-0.1-0.1-0.1-0.1L8.3,11c0.1,0,0.3-0.1,0.3-0.2c0.2-0.3,0.1-0.7-0.2-0.8
			C8.4,9.9,8.2,9.8,8.1,9.9l0-0.3c0.1,0,0.1-0.1,0.1-0.2c0,0,0,0,0,0c0.1,0,0.2,0,0.3-0.1l0.5,0.2c0,0.1-0.1,0.2-0.1,0.4
			c0,0.3,0.1,0.6,0.3,0.8l-0.3,0.4c-0.1,0-0.3,0-0.3,0.1c-0.1,0.1,0,0.3,0.1,0.4c0.1,0.1,0.3,0,0.4-0.1c0-0.1,0-0.2,0-0.3l0.3-0.4
			C9.5,10.9,9.7,11,9.9,11c0.4,0,0.8-0.2,1-0.6l0.5,0.2c0,0.1,0,0.2,0.1,0.2c0.1,0.1,0.3,0.1,0.4-0.1c0.1-0.1,0.1-0.3-0.1-0.4
			c-0.1-0.1-0.3-0.1-0.3,0L11,10.2C11,10.1,11,10,11,9.9c0-0.3-0.1-0.6-0.3-0.8L11,8.7c0.1,0,0.3,0,0.3-0.1c0-0.1,0-0.2,0-0.3
			c0,0,0,0,0.1,0l0.1,0.4c-0.1,0-0.2,0.1-0.3,0.3c-0.2,0.3-0.1,0.7,0.2,0.8c0.1,0.1,0.3,0.1,0.4,0.1l0.1,0.3c-0.1,0-0.1,0.1-0.1,0.2
			c0,0.1,0.1,0.1,0.2,0.1c0.1,0,0.1-0.1,0.1-0.2c0,0-0.1-0.1-0.1-0.1l-0.1-0.3c0.1,0,0.2-0.1,0.3-0.3c0.2-0.3,0.1-0.7-0.2-0.8
			c-0.1-0.1-0.2-0.1-0.4-0.1l-0.1-0.4c0.1,0,0.1-0.1,0.1-0.2c0-0.1-0.1-0.1-0.2-0.1c-0.1,0-0.1,0.1-0.1,0.2c0,0,0,0,0,0
			c0,0,0,0-0.1,0c-0.1-0.1-0.3,0-0.4,0.1c0,0.1,0,0.2,0,0.3l-0.3,0.4c-0.2-0.1-0.4-0.2-0.6-0.2c-0.4,0-0.8,0.2-1,0.6L8.5,9.1
			c0-0.1,0-0.2-0.1-0.2C8.2,8.8,8,8.8,7.9,8.9C7.9,9,7.9,9.2,8,9.3c0,0,0,0-0.1,0c-0.1,0-0.1,0.1-0.1,0.2c0,0.1,0.1,0.1,0.1,0.1
			l0,0.3C7.8,9.9,7.7,10,7.6,10.1z"/>
		<path id="XMLID_445_" class="st0" d="M1.6,9.1c-0.2,0.3-0.2,0.7,0,0.9l-0.2,0.2c-0.1,0-0.2,0-0.2,0.1c-0.1,0.1,0,0.2,0,0.3
			c0.1,0.1,0.2,0,0.3,0c0,0,0-0.1,0-0.2l0.2-0.1c0,0,0.1,0.1,0.1,0.1c0.4,0.3,0.9,0.2,1.1-0.2c0.2-0.3,0.2-0.7-0.1-1l0.2-0.2
			c0.1,0,0.2,0,0.2-0.1c0.1-0.1,0-0.2,0-0.3C3.1,8.4,3,8.4,3,8.5c0,0.1,0,0.1,0,0.2L2.7,8.9c0,0,0,0,0,0C2.3,8.6,1.8,8.7,1.6,9.1z"
			/>
		<path id="XMLID_444_" class="st0" d="M3.5,11.3l-0.1,0.2c-0.1,0-0.2,0-0.2,0.1c0,0.1,0,0.2,0.1,0.3c0.1,0,0.2,0,0.3-0.1
			c0-0.1,0-0.1,0-0.2l0.1-0.2c0.4,0.2,0.9,0.1,1.2-0.3c0.3-0.4,0.2-1-0.2-1.3c0,0,0,0,0,0l0.1-0.2c0.1,0,0.2,0,0.2-0.1
			c0-0.1,0-0.2-0.1-0.3c-0.1,0-0.2,0-0.3,0.1c0,0.1,0,0.1,0,0.2L4.4,9.7C4,9.5,3.5,9.6,3.3,10C3,10.4,3.1,11,3.5,11.3z"/>
		<path id="XMLID_443_" class="st0" d="M6.1,11.9C6,11.9,6,12,6,12.1c0,0.1,0.1,0.2,0.2,0.2c0.1,0,0.2-0.1,0.2-0.2
			c0-0.1,0-0.1-0.1-0.1l0-0.3c0.2,0,0.5-0.1,0.6-0.3c0.3-0.4,0.2-0.9-0.2-1.1C6.5,10,6.4,10,6.3,10l0-0.2c0.1,0,0.1-0.1,0.1-0.2
			c0-0.1-0.1-0.2-0.2-0.2C6.1,9.4,6,9.5,6,9.6c0,0.1,0,0.1,0.1,0.1l0,0.2c-0.2,0-0.5,0.1-0.6,0.3c-0.3,0.4-0.2,0.9,0.2,1.1
			c0.1,0.1,0.2,0.1,0.4,0.1L6.1,11.9z"/>
		<path id="XMLID_442_" class="st0" d="M0.6,9c0.1,0,0.1,0,0.2,0c0,0,0-0.1,0-0.1l0.1-0.1c0,0,0,0,0,0c0.2,0.2,0.5,0.1,0.7-0.1
			c0.1-0.2,0.1-0.4,0-0.6l0.1-0.1c0.1,0,0.1,0,0.1,0c0-0.1,0-0.1,0-0.2c-0.1,0-0.1,0-0.2,0c0,0,0,0.1,0,0.1L1.5,8c0,0,0,0,0,0
			C1.3,7.8,0.9,7.8,0.8,8.1c-0.1,0.2-0.1,0.4,0,0.6L0.7,8.8c-0.1,0-0.1,0-0.1,0C0.5,8.9,0.5,9,0.6,9z"/>
		<path id="XMLID_441_" class="st0" d="M0.3,7.5c0.2,0.1,0.4,0.1,0.6-0.1C1,7.3,1,7.1,0.9,7L1,6.9c0,0,0.1,0,0.1,0c0,0,0-0.1,0-0.1
			c0,0-0.1,0-0.1,0c0,0,0,0.1,0,0.1L0.9,6.9c0,0,0,0-0.1-0.1C0.6,6.7,0.4,6.8,0.2,7C0.1,7.1,0.1,7.4,0.3,7.5L0.1,7.6
			c0,0-0.1,0-0.1,0c0,0,0,0.1,0,0.1c0,0,0.1,0,0.1,0c0,0,0-0.1,0-0.1L0.3,7.5z"/>
		<path id="XMLID_440_" class="st0" d="M11.5,16.3l0.2,0.1c0,0.1,0.1,0.2,0.1,0.2c0.1,0,0.2,0,0.3-0.1c0-0.1,0-0.2-0.1-0.3
			c-0.1,0-0.1,0-0.2,0l-0.2-0.1c0.2-0.4,0-0.9-0.4-1.2c-0.4-0.3-1-0.2-1.3,0.3c0,0,0,0,0,0l-0.2-0.1c0-0.1-0.1-0.2-0.1-0.2
			c-0.1,0-0.2,0-0.3,0.1c0,0.1,0,0.2,0.1,0.3c0.1,0,0.1,0,0.2,0l0.2,0.1c-0.2,0.4,0,0.9,0.4,1.2C10.6,16.8,11.2,16.7,11.5,16.3z"/>
		<path id="XMLID_439_" class="st0" d="M10.5,18.6c0.1,0.1,0.2,0,0.3-0.1s0-0.2-0.1-0.3c-0.1,0-0.1,0-0.2,0l-0.2-0.2
			c0,0,0.1-0.1,0.1-0.1c0.2-0.4,0.1-0.9-0.2-1.1c-0.3-0.2-0.7-0.2-1,0.1L9,16.7c0-0.1,0-0.2-0.1-0.2c-0.1-0.1-0.2,0-0.3,0.1
			c-0.1,0.1,0,0.2,0.1,0.3c0.1,0,0.1,0,0.2,0l0.2,0.2c0,0,0,0,0,0c-0.2,0.4-0.1,0.9,0.2,1.1c0.3,0.2,0.7,0.2,0.9,0l0.2,0.2
			C10.4,18.4,10.4,18.5,10.5,18.6z"/>
		<path id="XMLID_438_" class="st0" d="M12.2,13.8c0.1,0,0.2-0.1,0.1-0.2c0-0.1-0.1-0.2-0.2-0.1c-0.1,0-0.1,0.1-0.1,0.1l-0.3,0
			c0-0.2-0.1-0.5-0.4-0.6c-0.4-0.2-0.9-0.1-1.1,0.2c-0.1,0.1-0.1,0.2-0.1,0.4l-0.2,0c0-0.1-0.1-0.1-0.2-0.1c-0.1,0-0.2,0.1-0.1,0.2
			c0,0.1,0.1,0.2,0.2,0.1c0.1,0,0.1-0.1,0.1-0.1l0.2,0c0,0.2,0.1,0.5,0.4,0.6c0.4,0.2,0.9,0.1,1.1-0.2c0.1-0.1,0.1-0.2,0.1-0.4
			l0.3,0C12,13.7,12.1,13.8,12.2,13.8z"/>
		<path id="XMLID_437_" class="st0" d="M11.7,11.6c0.1,0,0.1-0.1,0.1-0.2c0-0.1-0.1-0.1-0.2-0.1c0,0-0.1,0.1-0.1,0.1l-0.4,0.1
			c0-0.1-0.1-0.3-0.2-0.3c-0.3-0.2-0.7-0.1-0.8,0.2c-0.1,0.1-0.1,0.3-0.1,0.4l-0.3,0.1c0-0.1-0.1-0.1-0.2-0.1
			c-0.1,0-0.1,0.1-0.1,0.2C9.4,12,9.5,12,9.6,12c0,0,0.1-0.1,0.1-0.1l0.3-0.1c0,0.1,0.1,0.2,0.2,0.3c0.3,0.2,0.7,0.1,0.8-0.2
			c0.1-0.1,0.1-0.2,0.1-0.4l0.4-0.1C11.5,11.6,11.6,11.6,11.7,11.6z"/>
		<path id="XMLID_436_" class="st0" d="M9.1,19.3c0.1,0,0.1,0,0.2,0c0-0.1,0-0.1,0-0.2c0,0-0.1,0-0.1,0L9,19c0,0,0,0,0,0
			c0.2-0.2,0.1-0.5-0.1-0.7c-0.2-0.1-0.4-0.1-0.6,0l-0.1-0.1c0-0.1,0-0.1,0-0.1c-0.1,0-0.1,0-0.2,0c0,0.1,0,0.1,0,0.2
			c0,0,0.1,0,0.1,0l0.1,0.1c0,0,0,0,0,0C8,18.6,8,18.9,8.3,19.1c0.2,0.1,0.4,0.1,0.6,0L9,19.2C9,19.2,9,19.3,9.1,19.3z"/>
		<path id="XMLID_435_" class="st0" d="M7.9,19.8c0,0,0.1,0,0.1,0c0,0,0-0.1,0-0.1c0,0-0.1,0-0.1,0l-0.1-0.1
			c0.1-0.2,0.1-0.4-0.1-0.6c-0.1-0.1-0.3-0.1-0.4,0l-0.1-0.1c0,0,0-0.1,0-0.1c0,0-0.1,0-0.1,0c0,0,0,0.1,0,0.1c0,0,0.1,0,0.1,0
			L7.1,19c0,0,0,0-0.1,0.1C7,19.3,7,19.5,7.2,19.6c0.2,0.1,0.4,0.1,0.5-0.1l0.1,0.1C7.9,19.8,7.9,19.8,7.9,19.8z"/>
		<path id="XMLID_434_" class="st0" d="M14,8.1C13.9,8,13.7,8,13.6,8l0-0.3c0.1,0,0.1-0.1,0.1-0.2c0-0.1-0.1-0.2-0.2-0.1
			c-0.1,0-0.2,0.1-0.1,0.2c0,0.1,0.1,0.1,0.1,0.1l0,0.3c-0.2,0-0.5,0.2-0.6,0.4c-0.2,0.4-0.1,0.9,0.3,1.1c0.1,0.1,0.2,0.1,0.4,0.1
			l0,0.2c-0.1,0-0.1,0.1-0.1,0.2c0,0.1,0.1,0.2,0.2,0.1c0.1,0,0.2-0.1,0.1-0.2c0-0.1-0.1-0.1-0.1-0.1l0-0.2c0.2,0,0.5-0.2,0.6-0.4
			C14.5,8.9,14.4,8.4,14,8.1z"/>
		<path id="XMLID_433_" class="st0" d="M16.9,9.4c-0.2,0.3-0.2,0.7,0.1,1l-0.2,0.2c-0.1,0-0.2,0-0.2,0.1c-0.1,0.1,0,0.2,0.1,0.3
			s0.2,0,0.3-0.1c0-0.1,0-0.1,0-0.2l0.2-0.2c0,0,0,0,0,0c0.4,0.2,0.9,0.1,1.1-0.3c0.2-0.3,0.2-0.7,0-0.9l0.2-0.2
			c0.1,0,0.2,0,0.2-0.1c0.1-0.1,0-0.2-0.1-0.3c-0.1-0.1-0.2,0-0.3,0.1c0,0.1,0,0.1,0,0.2l-0.1,0.2c0,0-0.1,0-0.1-0.1
			C17.6,8.9,17.1,9,16.9,9.4z"/>
		<path id="XMLID_432_" class="st0" d="M18.2,10.8c-0.1,0.2-0.1,0.4,0,0.6l-0.1,0.1c-0.1,0-0.1,0-0.1,0.1c0,0.1,0,0.1,0,0.2
			c0.1,0,0.1,0,0.2,0c0,0,0-0.1,0-0.1l0.1-0.1c0,0,0,0,0,0c0.2,0.1,0.5,0.1,0.7-0.2c0.1-0.2,0.1-0.4,0-0.6l0.1-0.1
			c0.1,0,0.1,0,0.1-0.1c0-0.1,0-0.1,0-0.2c-0.1,0-0.1,0-0.2,0c0,0,0,0.1,0,0.1L19,10.6c0,0,0,0,0,0C18.7,10.5,18.4,10.5,18.2,10.8z"
			/>
		<path id="XMLID_431_" class="st0" d="M19,11.9c-0.1,0.1-0.1,0.3,0,0.4l-0.1,0.1c0,0-0.1,0-0.1,0c0,0,0,0.1,0,0.1c0,0,0.1,0,0.1,0
			c0,0,0-0.1,0-0.1l0.1-0.1c0,0,0,0,0.1,0c0.2,0.1,0.4,0.1,0.6-0.1c0.1-0.2,0.1-0.4-0.1-0.5l0.1-0.1c0,0,0.1,0,0.1,0
			c0,0,0-0.1,0-0.1c0,0-0.1,0-0.1,0c0,0,0,0.1,0,0.1l-0.1,0.2C19.4,11.7,19.1,11.7,19,11.9z"/>
		<path id="XMLID_430_" class="st0" d="M16.2,7.9l-0.1,0.2c-0.4-0.2-0.9,0-1.2,0.4c-0.3,0.4-0.1,1,0.3,1.3c0,0,0,0,0,0L15.1,10
			C15,10,15,10,14.9,10.1c0,0.1,0,0.2,0.1,0.2c0.1,0,0.2,0,0.2-0.1c0-0.1,0-0.1,0-0.2l0.1-0.2c0.4,0.2,0.9,0,1.2-0.4
			c0.3-0.4,0.1-1-0.3-1.3L16.3,8c0.1,0,0.2-0.1,0.2-0.1c0-0.1,0-0.2-0.1-0.2c-0.1,0-0.2,0-0.2,0.1C16.1,7.8,16.1,7.9,16.2,7.9z"/>
		<path id="XMLID_429_" class="st0" d="M15.3,5.3l0,0.3c-0.1,0-0.1,0.1-0.1,0.2c0,0.1,0.1,0.2,0.2,0.1c0.1,0,0.2-0.1,0.1-0.2
			c0-0.1-0.1-0.1-0.1-0.1l0-0.3c0,0,0,0,0,0c0.4-0.1,0.7-0.5,0.6-1c-0.1-0.3-0.4-0.6-0.7-0.6l0-0.2c0.1,0,0.1-0.1,0.1-0.2
			c0-0.1-0.1-0.2-0.2-0.1c-0.1,0-0.2,0.1-0.1,0.2c0,0.1,0.1,0.1,0.1,0.1l0,0.2c0,0-0.1,0-0.1,0c-0.4,0.1-0.7,0.5-0.6,1
			C14.6,5,15,5.3,15.3,5.3z"/>
		<path id="XMLID_428_" class="st0" d="M16.9,5l0,0.2c0,0-0.1,0.1-0.1,0.1c0,0.1,0.1,0.1,0.1,0.1c0.1,0,0.1-0.1,0.1-0.1
			c0,0,0-0.1-0.1-0.1L17,5c0,0,0,0,0,0c0.3-0.1,0.4-0.3,0.4-0.6c0-0.2-0.2-0.4-0.5-0.4l0-0.2c0,0,0.1-0.1,0.1-0.1
			c0-0.1-0.1-0.1-0.1-0.1c-0.1,0-0.1,0.1-0.1,0.1c0,0,0,0.1,0.1,0.1l0,0.2c0,0,0,0,0,0c-0.3,0.1-0.4,0.3-0.4,0.6
			C16.5,4.9,16.7,5,16.9,5z"/>
		<path id="XMLID_427_" class="st0" d="M18.1,5.3l0,0.1c0,0-0.1,0.1-0.1,0.1c0,0.1,0.1,0.1,0.1,0.1c0.1,0,0.1-0.1,0.1-0.1
			c0,0,0-0.1-0.1-0.1L18.1,5.3c0.1,0,0.1,0,0.2,0c0.2,0,0.4-0.3,0.3-0.5c0-0.2-0.2-0.3-0.4-0.3l0-0.2c0,0,0.1-0.1,0.1-0.1
			c0-0.1-0.1-0.1-0.1-0.1c-0.1,0-0.1,0.1-0.1,0.1c0,0,0,0.1,0.1,0.1l0,0.2c-0.2,0.1-0.3,0.3-0.3,0.5C17.9,5.1,18,5.2,18.1,5.3z"/>
		<path id="XMLID_426_" class="st0" d="M12.5,7.5c0.1,0.1,0.2,0,0.3-0.1c0.1-0.1,0-0.2-0.1-0.3c-0.1,0-0.1,0-0.2,0l-0.1-0.1
			c0.1-0.2,0.2-0.4,0.2-0.7c-0.1-0.4-0.5-0.7-1-0.6c-0.1,0-0.3,0.1-0.4,0.2L11,5.7c0-0.1,0-0.2-0.1-0.2c-0.1-0.1-0.2,0-0.3,0.1
			c-0.1,0.1,0,0.2,0.1,0.3c0.1,0,0.1,0,0.2,0L11.1,6C11,6.2,10.9,6.5,11,6.7c0.1,0.4,0.5,0.7,1,0.6c0.1,0,0.3-0.1,0.4-0.2l0.1,0.1
			C12.4,7.4,12.4,7.5,12.5,7.5z"/>
		<path id="XMLID_425_" class="st0" d="M13.1,4c0.1-0.1,0.1-0.2,0-0.2c-0.1-0.1-0.2-0.1-0.3-0.1c-0.1,0.1-0.1,0.2-0.1,0.3
			c0,0.1,0.1,0.1,0.2,0.1L13,4.2c-0.4,0.2-0.7,0.6-0.6,1.1c0.1,0.5,0.6,0.8,1.1,0.7c0,0,0,0,0,0l0.1,0.2c-0.1,0.1-0.1,0.2,0,0.2
			c0.1,0.1,0.2,0.1,0.3,0.1C14,6.5,14.1,6.4,14,6.3c0-0.1-0.1-0.1-0.2-0.1L13.8,6c0.4-0.2,0.6-0.6,0.6-1.1c-0.1-0.5-0.6-0.8-1.1-0.7
			L13.1,4z"/>
		<path id="XMLID_424_" class="st0" d="M3.6,4.3c0.1,0,0.1,0,0.1-0.1l0.2,0c0,0,0,0.1,0,0.1C4,4.8,4.5,5.1,4.9,5
			c0.4-0.1,0.6-0.4,0.7-0.7l0.3,0c0,0.1,0.1,0.1,0.2,0.1c0.1,0,0.2-0.1,0.2-0.2C6.2,4,6.1,4,6,4C5.9,4,5.9,4,5.9,4.1l-0.3,0
			c0,0,0,0,0,0C5.5,3.6,5.1,3.3,4.6,3.4C4.3,3.4,4,3.7,4,4L3.7,4c0-0.1-0.1-0.1-0.2-0.1C3.4,3.9,3.4,4,3.4,4.1
			C3.4,4.2,3.5,4.3,3.6,4.3z"/>
		<path id="XMLID_423_" class="st0" d="M7.2,7.2C7,7.1,6.8,7,6.5,7.1C6.1,7.1,5.8,7.6,5.9,8c0,0.1,0.1,0.3,0.2,0.4L5.8,8.6
			c-0.1,0-0.2,0-0.2,0.1c-0.1,0.1,0,0.2,0,0.3c0.1,0.1,0.2,0,0.3,0c0-0.1,0-0.1,0-0.2l0.2-0.2c0.2,0.2,0.4,0.2,0.7,0.2
			c0.4-0.1,0.7-0.5,0.7-0.9c0-0.1-0.1-0.3-0.2-0.4l0.1-0.1c0.1,0,0.2,0,0.2-0.1c0.1-0.1,0-0.2,0-0.3c-0.1-0.1-0.2,0-0.3,0
			c0,0.1,0,0.1,0,0.2L7.2,7.2z"/>
		<path id="XMLID_422_" class="st0" d="M6.2,5.8C6,5.4,5.6,5.1,5.2,5.2C4.6,5.3,4.3,5.8,4.4,6.3l-0.2,0C4.1,6.3,4,6.3,4,6.3
			c-0.1,0-0.1,0.2-0.1,0.3c0,0.1,0.2,0.1,0.3,0.1c0.1,0,0.1-0.1,0.1-0.1l0.2,0C4.6,6.9,5,7.2,5.5,7.1C6,7,6.4,6.5,6.3,6c0,0,0,0,0,0
			l0.2-0.1C6.5,6,6.6,6,6.7,6c0.1,0,0.1-0.2,0.1-0.3c0-0.1-0.2-0.1-0.3-0.1c-0.1,0-0.1,0.1-0.1,0.1L6.2,5.8z"/>
		<path id="XMLID_421_" class="st0" d="M4.1,2.7C4.2,2.7,4.2,2.7,4.1,2.7l0.3-0.1c0,0,0,0,0,0c0,0.3,0.3,0.5,0.6,0.4
			c0.2,0,0.4-0.2,0.4-0.4l0.2,0c0,0,0.1,0.1,0.1,0.1c0.1,0,0.1-0.1,0.1-0.1c0-0.1-0.1-0.1-0.1-0.1c0,0-0.1,0-0.1,0.1l-0.2,0
			c0,0,0,0,0,0c0-0.3-0.3-0.5-0.6-0.4c-0.2,0-0.4,0.2-0.4,0.4l-0.2,0c0,0-0.1-0.1-0.1-0.1C4,2.5,4,2.5,4,2.6C4,2.7,4,2.7,4.1,2.7z"
			/>
		<path id="XMLID_420_" class="st0" d="M4.6,1.5C4.6,1.4,4.6,1.4,4.6,1.5l0.3,0c0,0.2,0.2,0.4,0.5,0.3c0.2,0,0.3-0.2,0.3-0.3l0.1,0
			c0,0,0.1,0.1,0.1,0.1C5.9,1.5,6,1.4,6,1.4c0-0.1-0.1-0.1-0.1-0.1c0,0-0.1,0-0.1,0.1l-0.1,0c0,0,0-0.1,0-0.1c0-0.2-0.2-0.4-0.5-0.3
			C5,1,4.9,1.1,4.9,1.3l-0.2,0c0,0-0.1-0.1-0.1-0.1c-0.1,0-0.1,0.1-0.1,0.1C4.5,1.4,4.5,1.5,4.6,1.5z"/>
		<path id="XMLID_419_" class="st0" d="M5.2,16.5c0.4-0.1,0.7-0.6,0.5-1c-0.1-0.4-0.5-0.6-0.8-0.6l0-0.3c0.1,0,0.1-0.1,0.1-0.2
			c0-0.1-0.1-0.2-0.2-0.1c-0.1,0-0.2,0.1-0.1,0.2c0,0.1,0.1,0.1,0.1,0.1l0,0.3c0,0,0,0,0,0c-0.4,0.1-0.7,0.6-0.5,1
			c0.1,0.3,0.4,0.6,0.7,0.6l0,0.2c-0.1,0-0.1,0.1-0.1,0.2c0,0.1,0.1,0.2,0.2,0.1c0.1,0,0.2-0.1,0.1-0.2c0-0.1-0.1-0.1-0.1-0.1l0-0.2
			C5.1,16.5,5.2,16.5,5.2,16.5z"/>
		<path id="XMLID_418_" class="st0" d="M7.1,15.8L7.2,16c-0.1,0.1-0.1,0.2,0,0.2c0.1,0.1,0.2,0.1,0.3,0.1c0.1-0.1,0.1-0.2,0.1-0.3
			c0-0.1-0.1-0.1-0.2-0.1l-0.1-0.2c0.4-0.2,0.6-0.7,0.5-1.1c-0.2-0.5-0.7-0.8-1.2-0.6c0,0,0,0,0,0l-0.1-0.2c0.1-0.1,0.1-0.2,0-0.2
			c-0.1-0.1-0.2-0.1-0.3-0.1c-0.1,0.1-0.1,0.2-0.1,0.3c0,0.1,0.1,0.1,0.2,0.1l0.1,0.2c-0.4,0.2-0.6,0.7-0.5,1.1
			C6.1,15.7,6.6,16,7.1,15.8z"/>
		<path id="XMLID_417_" class="st0" d="M3.5,16.3c0.3-0.1,0.4-0.4,0.3-0.6c-0.1-0.2-0.3-0.4-0.5-0.4l0-0.2c0,0,0.1-0.1,0.1-0.1
			c0-0.1-0.1-0.1-0.2-0.1c-0.1,0-0.1,0.1-0.1,0.2c0,0,0,0.1,0.1,0.1l0,0.2c0,0,0,0,0,0c-0.3,0.1-0.4,0.4-0.3,0.6
			c0.1,0.2,0.3,0.4,0.5,0.4l0,0.2c0,0-0.1,0.1-0.1,0.1c0,0.1,0.1,0.1,0.2,0.1c0.1,0,0.1-0.1,0.1-0.2c0,0,0-0.1-0.1-0.1L3.5,16.3
			C3.5,16.3,3.5,16.3,3.5,16.3z"/>
		<path id="XMLID_416_" class="st0" d="M2.4,15.5c0-0.2-0.2-0.3-0.3-0.3l0-0.1c0,0,0.1-0.1,0-0.1c0-0.1-0.1-0.1-0.1-0.1
			c-0.1,0-0.1,0.1-0.1,0.1c0,0,0,0.1,0.1,0.1l0,0.1c0,0-0.1,0-0.1,0c-0.2,0.1-0.3,0.3-0.3,0.5c0.1,0.2,0.2,0.3,0.4,0.3l0,0.2
			c0,0-0.1,0.1,0,0.1c0,0.1,0.1,0.1,0.1,0.1c0.1,0,0.1-0.1,0.1-0.1c0,0,0-0.1-0.1-0.1l0-0.2C2.4,15.9,2.5,15.7,2.4,15.5z"/>
		<path id="XMLID_415_" class="st0" d="M7.3,12.5c0,0.1,0,0.2,0.1,0.3c0.1,0,0.1,0,0.2,0l0.2,0.1c-0.1,0.2-0.2,0.5-0.1,0.7
			c0.1,0.4,0.6,0.7,1,0.5c0.1,0,0.2-0.1,0.3-0.2l0.2,0.2c0,0.1,0,0.2,0.1,0.2c0.1,0,0.2,0,0.3-0.1c0-0.1,0-0.2-0.1-0.3
			c-0.1,0-0.1,0-0.2,0L9,13.8c0.1-0.2,0.2-0.5,0.1-0.7c-0.1-0.4-0.6-0.7-1-0.5c-0.1,0-0.2,0.1-0.3,0.2l-0.2-0.1c0-0.1,0-0.2-0.1-0.2
			C7.4,12.4,7.3,12.4,7.3,12.5z"/>
		<path id="XMLID_414_" class="st0" d="M13.6,12.3c0.4-0.1,0.7-0.6,0.5-1c0-0.1-0.1-0.2-0.2-0.3l0.2-0.2c0.1,0,0.2,0,0.2-0.1
			c0-0.1,0-0.2-0.1-0.3c-0.1,0-0.2,0-0.3,0.1c0,0.1,0,0.1,0,0.2l-0.2,0.2c-0.2-0.1-0.4-0.2-0.7-0.1c-0.4,0.1-0.7,0.6-0.5,1
			c0,0.1,0.1,0.2,0.2,0.3l-0.1,0.2c-0.1,0-0.2,0-0.2,0.1c0,0.1,0,0.2,0.1,0.3c0.1,0,0.2,0,0.3-0.1c0-0.1,0-0.1,0-0.2l0.1-0.2
			C13.1,12.3,13.4,12.3,13.6,12.3z"/>
		<path id="XMLID_413_" class="st0" d="M17,15c0.1,0,0.2-0.1,0.1-0.2c0-0.1-0.1-0.2-0.2-0.1c-0.1,0-0.1,0.1-0.1,0.1l-0.2,0
			c0,0,0-0.1,0-0.1c-0.1-0.4-0.6-0.7-1-0.5c-0.4,0.1-0.6,0.5-0.6,0.8l-0.3,0c0-0.1-0.1-0.1-0.2-0.1c-0.1,0-0.2,0.1-0.1,0.2
			c0,0.1,0.1,0.2,0.2,0.1c0.1,0,0.1-0.1,0.1-0.1l0.3,0c0,0,0,0,0,0c0.1,0.4,0.6,0.7,1,0.5c0.3-0.1,0.6-0.4,0.6-0.7l0.2,0
			C16.8,15,16.9,15,17,15z"/>
		<path id="XMLID_412_" class="st0" d="M13.8,13.7c0.1,0,0.1-0.1,0.1-0.2l0.2-0.1c0.2,0.4,0.7,0.6,1.1,0.5c0.5-0.2,0.8-0.7,0.6-1.2
			l0.2-0.1c0.1,0.1,0.2,0.1,0.2,0c0.1-0.1,0.1-0.2,0.1-0.3c-0.1-0.1-0.2-0.1-0.3-0.1c-0.1,0-0.1,0.1-0.1,0.2l-0.2,0.1
			c-0.2-0.4-0.7-0.6-1.1-0.5c-0.5,0.2-0.8,0.7-0.6,1.2c0,0,0,0,0,0l-0.2,0.1c-0.1-0.1-0.2-0.1-0.2,0c-0.1,0.1-0.1,0.2-0.1,0.3
			C13.6,13.7,13.7,13.7,13.8,13.7z"/>
		<path id="XMLID_411_" class="st0" d="M16.6,16.5c0.1,0,0.1-0.1,0.1-0.2c0-0.1-0.1-0.1-0.2-0.1c0,0-0.1,0-0.1,0.1l-0.2,0
			c0,0,0,0,0,0c-0.1-0.3-0.4-0.4-0.6-0.3c-0.2,0.1-0.4,0.3-0.4,0.5l-0.2,0c0,0-0.1-0.1-0.1-0.1c-0.1,0-0.1,0.1-0.1,0.2
			c0,0.1,0.1,0.1,0.2,0.1c0,0,0.1,0,0.1-0.1l0.2,0c0,0,0,0,0,0c0.1,0.3,0.4,0.4,0.6,0.3c0.2-0.1,0.4-0.3,0.4-0.5l0.2,0
			C16.5,16.5,16.6,16.5,16.6,16.5z"/>
		<path id="XMLID_410_" class="st0" d="M16.3,17.8c0.1,0,0.1-0.1,0.1-0.1c0-0.1-0.1-0.1-0.1-0.1c0,0-0.1,0-0.1,0.1l-0.2,0
			c-0.1-0.2-0.3-0.3-0.5-0.3c-0.2,0-0.3,0.2-0.3,0.3l-0.1,0c0,0-0.1-0.1-0.1,0c-0.1,0-0.1,0.1-0.1,0.1c0,0.1,0.1,0.1,0.1,0.1
			c0,0,0.1,0,0.1-0.1l0.1,0c0,0,0,0.1,0,0.1c0.1,0.2,0.3,0.3,0.5,0.3c0.2-0.1,0.3-0.2,0.3-0.4l0.2,0C16.2,17.7,16.2,17.8,16.3,17.8z
			"/>
	</g>
</g>
</svg>
