<?xml version="1.0" encoding="utf-8"?>
<!-- Generator: Adobe Illustrator 19.0.0, SVG Export Plug-In . SVG Version: 6.00 Build 0)  -->
<svg version="1.1" id="Capa_1" xmlns="http://www.w3.org/2000/svg" xmlns:xlink="http://www.w3.org/1999/xlink" x="0px" y="0px"
	 viewBox="0 0 50 50" style="enable-background:new 0 0 50 50;" xml:space="preserve">
<style type="text/css">
	.st0{fill:#FFFFFF;stroke:#211915;stroke-width:0.25;stroke-miterlimit:10;}
	.st1{fill:#FFFFFF;stroke:#211915;stroke-miterlimit:10;}
</style>
<g id="XMLID_27_">
	<path id="XMLID_37_" class="st0" d="M41.5,6.2C36,1.3,28.6-0.7,21.4,0.2c-7,0.9-13.4,5.1-17.3,11C0.1,17.2-1,25,1,31.9
		c1.9,6.8,6.8,12.5,13.1,15.6c6.6,3.2,14.4,3.3,21.1,0.3C44.1,44,50,34.7,50,25C50,17.8,46.9,10.9,41.5,6.2z M40.7,41.3
		c0.4-1,0.6-2,0.8-3c0.3-1.5,0.3-2.9,0.2-4.4c0.7,0.8,1.1,1.8,1.2,2.9c0.1,0.8,0,1.6-0.2,2.3C42,40,41.4,40.7,40.7,41.3z M29.6,47.2
		c0.9-0.9,1.6-2,1.9-3.2c0.2-0.7,0.2-1.5,0-2.2c0.9-1.3,1.8-2.8,2.4-4.3c0.6-1.4,1.2-3,2.3-4.1c1.1-1.1,2.7-1.1,4-0.4
		c0.1,0.8,0.2,1.5,0.2,2.3c0.1,1.9-0.3,3.9-0.9,5.7c-0.3,0.9-0.7,1.6-1.2,2.4C35.8,45.2,32.8,46.5,29.6,47.2z M24.6,47.6
		c1.1-0.5,2.2-1.1,3.1-1.9c1-0.8,1.9-1.7,2.7-2.6c-0.1,1.2-0.7,2.4-1.6,3.3c-0.4,0.4-0.9,0.8-1.4,1.1C26.5,47.6,25.6,47.7,24.6,47.6
		z M19.1,46.9c-2.3-0.6-4.5-1.6-6.5-2.9c1.6,0,3.1-0.5,4.3-1.5c0.4-0.3,0.7-0.6,0.9-1c1.7-0.3,3.4-0.8,5-1.4c1.7-0.7,3.6-1.6,5.4-1
		c1,0.3,1.7,1.3,2,2.3C29.8,42,29.4,42.5,29,43c-1.3,1.4-2.9,2.6-4.6,3.5c-0.9,0.4-1.8,0.7-2.7,1C20.8,47.3,19.9,47.1,19.1,46.9z
		 M4.2,34c-0.6-1.4-1.1-2.9-1.4-4.4c0.9,0.9,2,1.7,3.3,1.9c0.7,0.2,1.5,0.2,2.2,0c1.3,0.9,2.8,1.8,4.3,2.4c1.4,0.6,3,1.2,4.1,2.3
		c1.1,1.1,1.1,2.7,0.4,4c-0.8,0.1-1.5,0.2-2.3,0.2c-1.9,0.1-3.9-0.3-5.7-0.9c-0.8-0.3-1.6-0.7-2.3-1.1C5.8,37.1,4.9,35.6,4.2,34z
		 M9.3,8.7c-0.4,1-0.6,2-0.8,2.9c-0.3,1.5-0.3,2.9-0.2,4.4c-0.7-0.8-1.1-1.8-1.2-2.9c-0.1-0.8,0-1.6,0.2-2.4C8,10,8.6,9.3,9.3,8.7z
		 M20.4,2.8c-0.9,0.9-1.6,2-1.9,3.2c-0.2,0.7-0.2,1.5,0,2.2c-0.9,1.3-1.8,2.8-2.4,4.3c-0.6,1.4-1.2,3-2.3,4.1
		c-1.1,1.1-2.7,1.1-4,0.4c-0.1-0.8-0.2-1.5-0.2-2.3c-0.1-1.9,0.3-3.9,0.9-5.7c0.3-0.8,0.7-1.6,1.1-2.3C14.1,4.9,17.2,3.5,20.4,2.8z
		 M25.4,2.3c-1.2,0.5-2.2,1.2-3.2,1.9c-1,0.8-1.9,1.7-2.7,2.6c0.1-1.2,0.7-2.4,1.6-3.3c0.4-0.5,1-0.8,1.5-1.2
		C23.5,2.3,24.5,2.3,25.4,2.3z M37.4,6c-1.5,0-3.1,0.5-4.2,1.5c-0.4,0.3-0.7,0.6-0.9,1c-1.7,0.3-3.4,0.8-5,1.4
		c-1.7,0.7-3.6,1.6-5.4,1c-1-0.3-1.7-1.3-2-2.3C20.2,8,20.6,7.5,21,7c1.3-1.4,2.9-2.6,4.6-3.5c0.9-0.4,1.8-0.8,2.8-1
		C31.6,3.1,34.7,4.3,37.4,6z M47.1,20.4c-0.9-0.9-2-1.6-3.2-1.9c-0.7-0.2-1.5-0.2-2.2,0c-1.3-0.9-2.8-1.8-4.3-2.4
		c-1.4-0.6-3-1.2-4.1-2.3c-1.1-1.1-1.1-2.7-0.4-4c0.8-0.1,1.5-0.2,2.3-0.2c1.9-0.1,3.9,0.3,5.7,0.9c0.8,0.3,1.6,0.7,2.3,1.2
		C45.2,14.2,46.5,17.2,47.1,20.4z M39.2,28.6c0.3,0.9,0.6,1.9,0.8,2.9c-0.4-0.2-0.9-0.3-1.4-0.3c-1.6-0.1-3.1,0.8-4,2
		c-1,1.4-1.6,3.2-2.4,4.7c-0.4,0.8-0.8,1.5-1.3,2.3c-0.7-1.4-2.1-2.5-3.9-2.6c-2-0.1-3.9,1-5.7,1.6c-0.9,0.3-1.9,0.6-2.9,0.8
		c0.2-0.4,0.3-0.9,0.3-1.4c0.1-1.6-0.8-3.1-2-4c-1.4-1-3.1-1.6-4.7-2.4c-0.8-0.4-1.5-0.8-2.3-1.3c1.4-0.7,2.5-2.1,2.6-3.9
		c0.1-2-1-3.9-1.6-5.8c-0.3-0.9-0.6-1.9-0.8-2.9c0.4,0.2,0.9,0.3,1.4,0.3c1.6,0.1,3.1-0.8,4-2c1-1.4,1.6-3.2,2.4-4.7
		c0.4-0.8,0.8-1.5,1.3-2.3c0.7,1.4,2.1,2.5,3.9,2.6c2,0.1,3.9-1,5.7-1.6c0.9-0.3,1.9-0.6,2.9-0.8c-0.2,0.4-0.3,0.9-0.3,1.4
		c-0.1,1.6,0.8,3.1,2,4c1.4,1,3.1,1.6,4.7,2.4c0.8,0.4,1.5,0.8,2.3,1.3c-1.4,0.7-2.5,2.1-2.6,3.9C37.5,24.8,38.6,26.8,39.2,28.6z
		 M38.4,8.5c-1.5-0.3-2.9-0.3-4.4-0.2c0.8-0.7,1.8-1.1,2.9-1.2c0.8-0.1,1.6,0,2.3,0.2c0.5,0.4,1,0.9,1.5,1.3
		c0.2,0.2,0.4,0.4,0.6,0.6C40.3,8.9,39.3,8.6,38.4,8.5z M7.5,16.9c0.3,0.4,0.6,0.7,1,0.9c0.3,1.7,0.8,3.4,1.4,5
		c0.7,1.7,1.6,3.6,1,5.4c-0.3,1-1.3,1.7-2.3,2C8,29.8,7.5,29.4,7,29c-1.4-1.3-2.6-2.9-3.5-4.6c-0.4-0.9-0.7-1.8-1-2.7
		c0.4-2.7,1.3-5.4,2.7-7.8C5.5,13.4,5.8,13,6,12.6C6,14.1,6.5,15.7,7.5,16.9z M4.2,27.7c0.8,1,1.7,1.9,2.6,2.7
		c-1.2-0.1-2.4-0.7-3.3-1.6c-0.5-0.4-0.8-1-1.1-1.5c-0.1-0.9-0.1-1.8-0.1-2.8C2.9,25.7,3.5,26.8,4.2,27.7z M11.6,41.5
		c1.5,0.3,2.9,0.3,4.4,0.2c-0.8,0.7-1.8,1.1-2.9,1.2c-0.8,0.1-1.6,0-2.3-0.2c-0.7-0.6-1.4-1.2-2.1-1.9C9.7,41.1,10.7,41.4,11.6,41.5
		z M42.5,33.1c-0.3-0.4-0.6-0.7-1-0.9c-0.3-1.7-0.8-3.4-1.4-5c-0.7-1.7-1.6-3.6-1-5.4c0.3-1,1.3-1.7,2.3-2c0.5,0.4,1.1,0.8,1.6,1.3
		c1.4,1.3,2.6,2.9,3.5,4.6c0.4,0.9,0.7,1.8,1,2.7c-0.5,3.2-1.7,6.3-3.4,9C44,35.8,43.5,34.3,42.5,33.1z M45.7,22.2
		c-0.8-1-1.7-1.9-2.6-2.7c1.2,0.1,2.4,0.7,3.3,1.6c0.4,0.4,0.8,0.9,1.1,1.5c0.1,0.8,0.1,1.6,0.1,2.4c0,0.1,0,0.3,0,0.4
		C47.1,24.2,46.5,23.2,45.7,22.2z"/>
	<circle id="XMLID_35_" class="st1" cx="11.9" cy="15.6" r="1.4"/>
	<circle id="XMLID_34_" class="st1" cx="22.9" cy="9" r="1.4"/>
	<circle id="XMLID_33_" class="st1" cx="34.9" cy="12.2" r="1.4"/>
	<circle id="XMLID_32_" class="st1" cx="41" cy="23" r="1.4"/>
	<circle id="XMLID_31_" class="st1" cx="37.7" cy="34.9" r="1.4"/>
	<circle id="XMLID_30_" class="st1" cx="27.1" cy="41" r="1.4"/>
	<circle id="XMLID_29_" class="st1" cx="15.2" cy="37.9" r="1.4"/>
	<circle id="XMLID_28_" class="st1" cx="9" cy="27.4" r="1.4"/>
</g>
</svg>
